<?xml version="1.0" encoding="utf-8"?>
<!-- Generator: Adobe Illustrator 23.0.1, SVG Export Plug-In . SVG Version: 6.00 Build 0)  -->
<svg version="1.1" id="Layer_1" xmlns="http://www.w3.org/2000/svg" xmlns:xlink="http://www.w3.org/1999/xlink" x="0px" y="0px"
	 viewBox="0 0 184 141" style="enable-background:new 0 0 184 141;" xml:space="preserve">
<style type="text/css">
	.st0{fill-rule:evenodd;clip-rule:evenodd;fill:#505A78;fill-opacity:0.15;}
	.st1{fill-rule:evenodd;clip-rule:evenodd;fill:#FF0000;}
	.st2{fill:none;stroke:#FFFFFF;stroke-width:3.519;}
	.st3{fill:none;stroke:#505A78;stroke-width:2.464;stroke-dasharray:172.4384,4.9265,0.2466,4.9265;}
	.st4{fill-rule:evenodd;clip-rule:evenodd;fill:#68718B;fill-opacity:0.5;}
	.st5{fill-rule:evenodd;clip-rule:evenodd;fill:#FF8429;}
	.st6{display:none;fill-rule:evenodd;clip-rule:evenodd;fill:#FFFFFF;}
	.st7{fill:#FFF3C9;}
	.st8{fill:#FFEAB8;}
	.st9{fill:#A2DAE7;}
	.st10{fill:#FC88A1;}
	.st11{fill:#FC5B68;}
	.st12{fill:#8DD3E7;}
	.st13{fill:#F04855;}
</style>
<g>
	<g transform="translate(3)">
		<path class="st0" d="M-482-52.5l-89.2-51.5L-662-51.5L-572.8,0L-482-52.5z"/>
		<path class="st1" d="M-482-60.5l-89.2-51.5L-662-59.5L-572.8-8L-482-60.5z"/>
		<g transform="translate(0 29)">
			<g>
				<path class="st2" d="M-643-99.4l68,39.3 M-526.7-115.1L-572-88.9l44.5,25.7 M-548.6-75.4L-575-60.1 M-546.5-126.6l-90.7,52.4"/>
			</g>
		</g>
		<path class="st3" d="M-482-60.5l-89.2-51.5L-662-59.5L-572.8-8L-482-60.5z"/>
		<ellipse class="st4" cx="-571" cy="-57.5" rx="17" ry="7.5"/>
		<path class="st5" d="M-571.5-141c15.7,0,28.5,13.1,28.5,29.3c0,14.1-21.7,44.6-27.2,52c-0.3,0.5-0.8,0.7-1.3,0.7s-1-0.2-1.3-0.6
			c-5.5-7.5-27.2-37.9-27.2-52.1C-600-127.9-587.2-141-571.5-141z"/>
		<path class="st6" d="M-574.7-104c0.1,0,0.2,0,0.2-0.1c0.1-0.1,0.1-0.2,0.1-0.2v-7.8c0-0.1,0-0.2,0.1-0.2c0.1-0.1,0.2-0.1,0.2-0.1
			h5.1c0.1,0,0.2,0,0.2,0.1c0.1,0.1,0.1,0.2,0.1,0.2v7.8c0,0.1,0,0.2,0.1,0.2c0.1,0.1,0.2,0.1,0.2,0.1h6.3c0.1,0,0.2,0,0.2-0.1
			c0.1-0.1,0.1-0.2,0.1-0.2V-115c0-0.1,0-0.2,0.1-0.2c0.1-0.1,0.2-0.1,0.2-0.1h3c0.1,0,0.3-0.1,0.3-0.2c0.1-0.1,0-0.3-0.1-0.4
			l-13.2-12c-0.1-0.1-0.3-0.1-0.5,0l-12.9,11.9c-0.1,0.1-0.1,0.3-0.1,0.4c0.1,0.1,0.2,0.2,0.3,0.2h3c0.1,0,0.2,0,0.2,0.1
			c0.1,0.1,0.1,0.2,0.1,0.2v10.7c0,0.1,0,0.2,0.1,0.2c0.1,0.2,0.2,0.2,0.3,0.2H-574.7z"/>
	</g>
	<text transform="matrix(0.7551 0 0 1 -588 -110.2314)" style="font-family:'MonotypeCorsiva'; font-size:15.1354px;">SOFTICS</text>
	
		<text transform="matrix(1.1744 -3.145677e-03 2.678726e-03 1 -580.2888 -90.9322)" style="font-family:'MonotypeCorsiva'; font-size:14.3215px;">cake</text>
</g>
<g>
	<path class="st7" d="M29.3,65.6h126.2c4.8,0,8.6,3,8.6,6.7v29.2l0,0H20.7l0,0V72.3C20.7,68.6,24.6,65.6,29.3,65.6z"/>
	<path class="st8" d="M155.5,65.6H144c4.8,0,8.6,3,8.6,6.7v29.2h11.5V72.3C164.1,68.6,160.3,65.6,155.5,65.6z"/>
	<path class="st7" d="M52.3,34.2h80.3c4.8,0,8.6,3,8.6,6.7v24.7l0,0H43.7l0,0V40.9C43.7,37.2,47.5,34.2,52.3,34.2z"/>
	<path class="st8" d="M132.6,34.2h-11.5c4.8,0,8.6,3,8.6,6.7v24.7h11.5V40.9C141.2,37.2,137.3,34.2,132.6,34.2z"/>
	<g>
		<path class="st9" d="M9.2,101.5h166.3l0,0c0,5-5.1,9-11.5,9H20.7C14.4,110.4,9.2,106.4,9.2,101.5L9.2,101.5z"/>
		<path class="st9" d="M112.5,128.4H72.3c-6.3,0-11.5,4-11.5,9H124C124,132.4,118.8,128.4,112.5,128.4z"/>
		<path class="st9" d="M86.7,110.4h11.5v17.9H86.7V110.4z"/>
	</g>
	<g>
		<path class="st10" d="M155.5,65.6H29.3c-4.8,0-8.6,3-8.6,6.7v13.3c8,1,16-2,20.1-7.5c5.7,7.4,18,9.9,27.5,5.4
			c2.9-1.3,5.2-3.2,6.9-5.4c5.7,7.4,18,9.9,27.5,5.4c2.9-1.3,5.2-3.2,6.9-5.4c5.7,7.4,18,9.9,27.5,5.4c2.9-1.3,5.2-3.2,6.9-5.4
			c4.1,5.5,12.1,8.4,20.1,7.5V72.3C164.1,68.6,160.3,65.6,155.5,65.6L155.5,65.6z"/>
		<path class="st10" d="M132.6,34.2H52.3c-4.8,0-8.6,3-8.6,6.7v13.3c6-0.7,11.2-3.4,14.3-7.5c5.7,7.4,18,9.9,27.5,5.4
			c2.9-1.3,5.2-3.2,6.9-5.4c5.7,7.4,18,9.9,27.5,5.4c2.9-1.3,5.2-3.2,6.9-5.4c3.1,4.1,8.4,6.8,14.3,7.5V40.9
			C141.2,37.2,137.3,34.2,132.6,34.2z"/>
	</g>
	<g>
		<path class="st11" d="M93.2,32.2L74.8,21c-4.1-2.5-5-7.1-2-10.5C76,7,82.1,6.3,86.5,8.7c1.1,0.6,2.1,1.5,2.8,2.4l3.9,5.3l3.9-5.3
			c2.7-3.7,8.7-4.9,13.4-2.8c1.2,0.5,2.3,1.3,3.1,2.2c3.1,3.3,2.2,8-2,10.5L93.2,32.2z"/>
		<path class="st11" d="M55.1,72.3h5.7v4.5h-5.7V72.3z"/>
		<path class="st11" d="M89.5,72.3h5.7v4.5h-5.7V72.3z"/>
		<path class="st11" d="M124,72.3h5.7v4.5H124V72.3z"/>
		<path class="st11" d="M155.5,72.3h5.7v4.5h-5.7V72.3z"/>
		<path class="st11" d="M23.6,72.3h5.7v4.5h-5.7V72.3z"/>
		<path class="st11" d="M72.3,40.9h5.7v4.5h-5.7V40.9z"/>
		<path class="st11" d="M106.8,40.9h5.7v4.5h-5.7V40.9z"/>
		<path class="st11" d="M43.7,40.9h5.7v4.5h-5.7V40.9z"/>
		<path class="st11" d="M135.4,40.9h5.7v4.5h-5.7V40.9z"/>
	</g>
	<path class="st12" d="M86.7,110.4h11.5v6.7H86.7V110.4z"/>
	<path class="st13" d="M113.5,10.5c-0.9-1-2.1-1.8-3.5-2.3c-5.1,10.5-16.8,16.4-24.6,19.3l7.7,4.7L111.6,21
		C115.7,18.5,116.6,13.8,113.5,10.5z"/>
</g>
</svg>
