<?xml version="1.0" encoding="utf-8"?>
<!-- Generator: Adobe Illustrator 23.0.1, SVG Export Plug-In . SVG Version: 6.00 Build 0)  -->
<svg version="1.1" id="Layer_1" xmlns="http://www.w3.org/2000/svg" xmlns:xlink="http://www.w3.org/1999/xlink" x="0px" y="0px"
	 viewBox="0 0 178 134" style="enable-background:new 0 0 178 134;" xml:space="preserve">
<style type="text/css">
	.st0{fill-rule:evenodd;clip-rule:evenodd;fill:#27B7FF;}
	.st1{fill-rule:evenodd;clip-rule:evenodd;fill:#BAE8FF;}
	.st2{fill-rule:evenodd;clip-rule:evenodd;fill:#6ED1FF;}
	.st3{fill-rule:evenodd;clip-rule:evenodd;fill:#505A78;}
	.st4{fill:none;stroke:#505A78;stroke-width:1.978;stroke-dasharray:138.4098,3.9543,0.1976,3.9543;}
	.st5{fill-rule:evenodd;clip-rule:evenodd;fill:#FFFFFF;}
	.st6{fill-rule:evenodd;clip-rule:evenodd;fill:#505A78;fill-opacity:0.243;}
	.st7{fill-rule:evenodd;clip-rule:evenodd;fill:#FFFFFF;stroke:#505A78;stroke-width:1.978;}
	
		.st8{fill-rule:evenodd;clip-rule:evenodd;fill:#DCDEE4;stroke:#B3B8C5;stroke-width:1.797;stroke-dasharray:179.7524,7.1898,0.1795,5.3926;}
	.st9{fill:#B3E59F;}
	.st10{fill:#95D6A4;}
	.st11{fill:#DD636E;}
	.st12{fill:#DA4A54;}
	.st13{fill:#664545;}
	.st14{fill:#F9EFDA;}
	.st15{fill:#F6E4C1;}
	.st16{fill:#E7A561;}
	.st17{fill:#E49542;}
	.st18{fill:#DF73C1;}
	.st19{fill:#DD4FB1;}
</style>
<g>
	<path class="st0" d="M-518-241l41.9,24.2v48.5L-518-144l-41.8-24.2v-48.5L-518-241z"/>
	<path class="st1" d="M-559.9-168.3L-518-144v-48.5l41.9-24.2L-518-241l-41.8,24.2V-168.3z"/>
	<path class="st2" d="M-559.9-216.7l41.8,24.2v48.5l-41.8-24.2V-216.7z"/>
	<path class="st3" d="M-543.4-207.2l9,5.2v10.4l-9-5.2V-207.2z"/>
	<path class="st3" d="M-543.4-207.2l9,5.2l41.9-24.2l-9-5.2L-543.4-207.2z"/>
	<path class="st4" d="M-518-241l41.9,24.2v48.5L-518-144l-41.8-24.2v-48.5C-559.9-216.7-518-241-518-241z"/>
	<path class="st5" d="M-538.3-186.2c0.5,0.3,1,0.5,1.4,0.9c0.6,0.5,1.2,1,1.8,1.6c0.7,0.8,1.4,1.6,1.9,2.6c0.5,0.9,1,1.8,1.3,2.7
		c0.3,0.8,0.5,1.6,0.6,2.3c0.1,0.8,0.1,1.6,0.1,2.3c-0.1,0.7-0.3,1.4-0.6,1.9c-0.3,0.6-0.8,1.1-1.4,1.3c-0.6,0.3-1.3,0.4-2.1,0.3
		c-0.5-0.1-0.9-0.2-1.3-0.3c-0.4-0.2-0.8-0.3-1.2-0.6c-0.4-0.3-0.9-0.5-1.3-0.9c-0.6-0.4-1.1-0.9-1.6-1.5v4c0,1.2-0.9,1.6-1.9,1
		c-1.1-0.6-1.9-2.1-1.9-3.3v-10.4c0-0.3,0-0.7,0-1c0.1-0.7,0.2-1.4,0.5-1.9c0.1-0.1,0.1-0.2,0.2-0.4c-0.6-0.7-1-1.6-1-2.4
		c0-1.2,0.9-1.6,1.9-1C-542.9-188.9-538.3-186.2-538.3-186.2z M-537.9-181.9c-0.1-0.1-0.3-0.1-0.4-0.2c-0.2-0.1-0.5-0.2-0.8-0.2
		c-0.2,0-0.5,0-0.7,0.1c-0.3,0.1-0.5,0.3-0.7,0.5c-0.1,0.2-0.2,0.5-0.3,0.7c-0.1,0.4-0.1,0.7,0,1.1c0,0.3,0.1,0.7,0.3,1.1
		c0.2,0.4,0.4,0.9,0.6,1.3c0.3,0.4,0.6,0.8,0.9,1.2c0.4,0.4,0.7,0.7,1.1,0.9c0.4,0.2,0.8,0.4,1.1,0.4c0.3,0,0.7,0,0.9-0.1
		c0.3-0.1,0.5-0.3,0.6-0.6c0.1-0.2,0.2-0.5,0.3-0.7c0.1-0.4,0-0.8,0-1.2c-0.1-0.5-0.3-1-0.5-1.5c-0.3-0.6-0.7-1.2-1.1-1.7
		c-0.2-0.3-0.5-0.5-0.8-0.7C-537.6-181.6-537.8-181.8-537.9-181.9z"/>
	<path class="st6" d="M-493-181.3l41-45.7v91l-41-31.2V-181.3z"/>
	<g>
		<path class="st7" d="M-384-266l-67.9,39v90.8l67.9-39V-266z"/>
		<path class="st8" d="M-436.5-214.1l36.2-20.8 M-436.5-199.2l36.2-20.8 M-436.5-184.2l36.2-20.8 M-436.5-169.5l20.7-11.9"/>
	</g>
	<path class="st5" d="M-483-187l-10,6v14l10-6V-187z"/>
</g>
<g>
	<path class="st9" d="M135.3,24.2c8.8,7.1,19.5,6.7,19.5,3.4s-6.1-1.9-7.8-3.3c-1.7-1.4,4.2-2.2,3.1-4.2c-1.1-2-7.1,0.5-8.9-0.9
		c-1.8-1.5,1.3-6.3-1.1-7.2c-2.5-0.9-3.5,3.9-5.2,2.5s0-6.3-4-6.3s-4.6,8.7,4.2,15.8"/>
	<path class="st10" d="M135.1,24L135.1,24c-8.9-7.2-8.3-15.9-4.3-15.9c4,0,2.3,5,4,6.3c0.2,0.1,0.3,0.2,0.5,0.2
		C133.2,17,131.9,21.4,135.1,24L135.1,24z"/>
	<path class="st11" d="M135.6,23.7c-8.2-6.7-15-12-23.3-5.3c-1.8,1.4-3.4,3.3-4.9,5.4c-3,4.2-5.1,9.5-5.4,14.2c0,0.7,0,1.3,0,1.9
		c0.2,3.1,1.3,5.9,3.8,7.9c3.6,2.9,9.5,3.6,15.6,2.8c7.9-1,16.2-4.3,20.8-8.1C150.4,35.9,143.9,30.4,135.6,23.7L135.6,23.7z"/>
	<path class="st12" d="M105.8,47.9c-8.2-6.7-1.7-22.8,6.5-29.5s15-1.4,23.3,5.3c-3.9-3.1-7.1-5.6-15.4,1.1S101.9,44.8,105.8,47.9
		L105.8,47.9z"/>
	<g>
		<path class="st13" d="M117.1,27.6c-0.6,0-1.2-0.2-1.6-0.5c-0.9-0.7-0.9-1.9,0-2.6l2.2-1.8c0.9-0.7,2.3-0.7,3.2,0
			c0.9,0.7,0.9,1.9,0,2.6l-2.2,1.8C118.2,27.4,117.6,27.6,117.1,27.6z"/>
		<path class="st13" d="M125.1,34.1c-0.6,0-1.2-0.2-1.6-0.5c-0.9-0.7-0.9-1.9,0-2.6l2.2-1.8c0.9-0.7,2.3-0.7,3.2,0
			c0.9,0.7,0.9,1.9,0,2.6l-2.2,1.8C126.3,33.9,125.7,34.1,125.1,34.1z"/>
		<path class="st13" d="M133.1,40.6c-0.6,0-1.2-0.2-1.6-0.5c-0.9-0.7-0.9-1.9,0-2.6l2.2-1.8c0.9-0.7,2.3-0.7,3.2,0s0.9,1.9,0,2.6
			l-2.2,1.8C134.3,40.4,133.7,40.6,133.1,40.6z"/>
	</g>
	<g>
		<path class="st13" d="M111.8,38.3c-0.6,0-1.2-0.2-1.6-0.5c-0.9-0.7-0.9-1.9,0-2.6l2.2-1.8c0.9-0.7,2.3-0.7,3.2,0
			c0.9,0.7,0.9,1.9,0,2.6l-2.2,1.8C113,38.2,112.4,38.3,111.8,38.3z"/>
		<path class="st13" d="M119.8,44.9c-0.6,0-1.2-0.2-1.6-0.5c-0.9-0.7-0.9-1.9,0-2.6l2.2-1.8c0.9-0.7,2.3-0.7,3.2,0
			c0.9,0.7,0.9,1.9,0,2.6l-2.2,1.8C121,44.7,120.4,44.9,119.8,44.9z"/>
	</g>
	<path class="st9" d="M68.3,24.2c8.8,7.1,19.5,6.7,19.5,3.4s-6.1-1.9-7.8-3.3s4.2-2.2,3.1-4.2c-1.1-2-7.1,0.5-8.9-0.9
		c-1.8-1.5,1.3-6.3-1.1-7.2s-3.5,3.9-5.2,2.5s0-6.3-4-6.3s-4.6,8.7,4.2,15.8"/>
	<path class="st10" d="M68.1,24L68.1,24c-8.9-7.2-8.3-15.9-4.3-15.9c4,0,2.3,5,4,6.3c0.2,0.1,0.3,0.2,0.5,0.2
		C66.2,17,64.9,21.4,68.1,24z"/>
	<path class="st11" d="M68.6,23.7c-8.2-6.7-15-12-23.3-5.3c-1.8,1.4-3.4,3.3-4.9,5.4c-3,4.2-5.1,9.5-5.4,14.2c0,0.7,0,1.3,0,1.9
		c0.2,3.1,1.3,5.9,3.8,7.9c3.6,2.9,9.5,3.6,15.6,2.8c7.9-1,16.2-4.3,20.8-8.1C83.4,35.9,76.8,30.4,68.6,23.7z"/>
	<path class="st12" d="M38.8,47.9c-8.2-6.7-1.7-22.8,6.5-29.5s15-1.4,23.3,5.3c-3.9-3.1-7.1-5.6-15.4,1.1S34.9,44.8,38.8,47.9
		L38.8,47.9z"/>
	<g>
		<path class="st13" d="M50,27.6c-0.6,0-1.2-0.2-1.6-0.5c-0.9-0.7-0.9-1.9,0-2.6l2.2-1.8c0.9-0.7,2.3-0.7,3.2,0
			c0.9,0.7,0.9,1.9,0,2.6L51.6,27C51.2,27.4,50.6,27.6,50,27.6z"/>
		<path class="st13" d="M58.1,34.1c-0.6,0-1.2-0.2-1.6-0.5c-0.9-0.7-0.9-1.9,0-2.6l2.2-1.8c0.9-0.7,2.3-0.7,3.2,0
			c0.9,0.7,0.9,1.9,0,2.6l-2.2,1.8C59.2,33.9,58.7,34.1,58.1,34.1z"/>
		<path class="st13" d="M66.1,40.6c-0.6,0-1.2-0.2-1.6-0.5c-0.9-0.7-0.9-1.9,0-2.6l2.2-1.8c0.9-0.7,2.3-0.7,3.2,0
			c0.9,0.7,0.9,1.9,0,2.6l-2.2,1.8C67.3,40.4,66.7,40.6,66.1,40.6z"/>
	</g>
	<g>
		<path class="st13" d="M44.8,38.3c-0.6,0-1.2-0.2-1.6-0.5c-0.9-0.7-0.9-1.9,0-2.6l2.2-1.8c0.9-0.7,2.3-0.7,3.2,0
			c0.9,0.7,0.9,1.9,0,2.6l-2.2,1.8C46,38.2,45.4,38.3,44.8,38.3z"/>
		<path class="st13" d="M52.8,44.9c-0.6,0-1.2-0.2-1.6-0.5c-0.9-0.7-0.9-1.9,0-2.6l2.2-1.8c0.9-0.7,2.3-0.7,3.2,0s0.9,1.9,0,2.6
			l-2.2,1.8C54,44.7,53.4,44.9,52.8,44.9z"/>
	</g>
	<path class="st14" d="M153.8,123c-38.4,2.2-76.8,2.5-115.2,0.8c-5.3-0.2-10.6-0.5-15.8-0.8c-4.1-19.9-4.7-39.9-1.7-59.8
		c0.5-3.2,1-6.3,1.7-9.5c43.7-2.5,87.3-2.5,131,0C158.6,76.8,158.6,99.9,153.8,123L153.8,123z"/>
	<path class="st15" d="M38.7,123.8c-5.3-0.2-10.6-0.5-15.8-0.8c-4.1-19.9-4.7-39.9-1.7-59.8l14.6,7.6C35.7,70.7,31.7,106,38.7,123.8
		z"/>
	<path class="st16" d="M156.1,109.6c-0.6,4.5-1.3,8.9-2.2,13.4c-38.4,2.2-76.8,2.5-115.2,0.8c-5.3-0.2-10.6-0.5-15.8-0.8
		c-0.9-4.5-1.7-8.9-2.2-13.4c5,0.3,10,0.5,14.9,0.7C75.7,112.1,115.9,111.9,156.1,109.6z"/>
	<path class="st17" d="M38.7,123.8c-5.3-0.2-10.6-0.5-15.8-0.8c-0.9-4.5-1.7-8.9-2.2-13.4c5,0.3,10,0.5,14.9,0.7
		C36.2,115.3,37.2,120,38.7,123.8z"/>
	<g>
		<path class="st15" d="M145.6,104.3c-0.6,0-1.1-0.2-1.6-0.5c-0.9-0.7-0.9-1.9-0.1-2.6l0.1-0.1c0.9-0.7,2.3-0.8,3.2-0.1
			s0.9,1.9,0.1,2.6l-0.1,0.1C146.8,104.1,146.2,104.3,145.6,104.3L145.6,104.3z"/>
		<path class="st15" d="M147.7,98.1c-0.6,0-1.1-0.2-1.6-0.5c-0.9-0.7-0.9-1.9-0.1-2.6l0.1-0.1c0.9-0.7,2.3-0.8,3.2-0.1
			c0.9,0.7,0.9,1.9,0.1,2.6l-0.1,0.1C148.9,97.9,148.3,98.1,147.7,98.1L147.7,98.1z"/>
		<path class="st15" d="M139.8,99.9c-0.6,0-1.1-0.2-1.6-0.5c-0.9-0.7-0.9-1.9-0.1-2.6l0.1-0.1c0.9-0.7,2.3-0.8,3.2-0.1
			c0.9,0.7,0.9,1.9,0.1,2.6l-0.1,0.1C141,99.7,140.4,99.9,139.8,99.9L139.8,99.9z"/>
	</g>
	<g>
		<path class="st15" d="M44,95c-0.6,0-1.1-0.2-1.6-0.5c-0.9-0.7-0.9-1.9-0.1-2.6l0.1-0.1c0.9-0.7,2.3-0.8,3.2-0.1s0.9,1.9,0.1,2.6
			l-0.1,0.1C45.2,94.8,44.6,95,44,95z"/>
		<path class="st15" d="M46.1,88.8c-0.6,0-1.1-0.2-1.6-0.5c-0.9-0.7-0.9-1.9-0.1-2.6l0.1-0.1c0.9-0.7,2.3-0.8,3.2-0.1
			s0.9,1.9,0.1,2.6l-0.1,0.1C47.3,88.6,46.7,88.8,46.1,88.8z"/>
		<path class="st15" d="M38.3,90.6c-0.6,0-1.1-0.2-1.6-0.5c-0.9-0.7-0.9-1.9-0.1-2.6l0.1-0.1c0.9-0.7,2.3-0.8,3.2-0.1
			s0.9,1.9,0.1,2.6L39.9,90C39.5,90.4,38.9,90.6,38.3,90.6z"/>
	</g>
	<path class="st18" d="M164.9,63v-4.5c0-5.9-5.9-10.6-13.1-10.6H27.6c-7.2,0-13.1,4.8-13.1,10.6V63c0,9.2,2.6,17.1,16,17.1
		s15.8-12.9,26.4-12.9s12.3,14.7,32.8,14.7s22.2-14.7,32.8-14.7s13,12.9,26.4,12.9S164.9,72.3,164.9,63L164.9,63z"/>
	<path class="st19" d="M32.7,58.6V63c0,4.6,0.7,8.9,3,12c0.9,1.2,2,2.2,3.3,3c-2.3,1.3-5.1,2.1-8.5,2.1c-6.7,0-10.7-2-13-5.1
		c-2.3-3.1-3-7.4-3-12v-4.5c0-5.9,5.9-10.6,13.1-10.6h18.2C38.6,48,32.7,52.7,32.7,58.6z"/>
</g>
</svg>
