<?xml version="1.0" encoding="utf-8"?>
<!-- Generator: Adobe Illustrator 23.0.1, SVG Export Plug-In . SVG Version: 6.00 Build 0)  -->
<svg version="1.1" id="Layer_1" xmlns="http://www.w3.org/2000/svg" xmlns:xlink="http://www.w3.org/1999/xlink" x="0px" y="0px"
	 viewBox="0 0 183 126" style="enable-background:new 0 0 183 126;" xml:space="preserve">
<style type="text/css">
	.st0{fill-rule:evenodd;clip-rule:evenodd;fill:#505A78;fill-opacity:0.15;}
	.st1{fill-rule:evenodd;clip-rule:evenodd;fill:#DCDEE4;}
	.st2{filter:url(#Adobe_OpacityMaskFilter);}
	.st3{fill-rule:evenodd;clip-rule:evenodd;fill:#FFFFFF;}
	.st4{mask:url(#b_1_);}
	.st5{fill:none;stroke:#FFFFFF;stroke-width:3.519;}
	.st6{fill:none;stroke:#505A78;stroke-width:2.464;stroke-dasharray:172.4384,4.9265,0.2466,4.9265;}
	.st7{fill-rule:evenodd;clip-rule:evenodd;fill:#68718B;fill-opacity:0.5;}
	.st8{fill-rule:evenodd;clip-rule:evenodd;fill:#27B7FF;}
	.st9{filter:url(#Adobe_OpacityMaskFilter_1_);}
	.st10{mask:url(#d_1_);fill:#FFFFFF;}
	.st11{filter:url(#Adobe_OpacityMaskFilter_2_);}
	.st12{mask:url(#f_1_);fill:#FFFFFF;}
	.st13{filter:url(#Adobe_OpacityMaskFilter_3_);}
	.st14{mask:url(#h_1_);fill:#FFFFFF;}
	.st15{fill:#B3E59F;}
	.st16{fill:#95D6A4;}
	.st17{fill:#DD636E;}
	.st18{fill:#DA4A54;}
	.st19{fill:#F9EFDA;}
	.st20{fill:#F6E4C1;}
	.st21{fill:#E7A561;}
	.st22{fill:#E49542;}
	.st23{fill:#DF73C1;}
	.st24{fill:#DD4FB1;}
	.st25{fill:#E01152;}
	.st26{fill:#C40047;}
	.st27{fill:#FFD2E3;}
	.st28{fill:#F7A6C1;}
	.st29{fill:#DB765A;}
	.st30{fill:#B55434;}
	.st31{fill:#FFF7C7;}
	.st32{fill:#FFF370;}
	.st33{fill:#FC709B;}
	.st34{fill:#D8D4C9;}
	.st35{fill:#F1EEE0;}
	.st36{fill:#F9F8F2;}
	.st37{fill:#FFFFFF;}
	.st38{fill:#FFFDF3;}
</style>
<g transform="translate(1)">
	<path class="st0" d="M-365.8-141.5l88.7,51.5l90.3-52.5l-88.7-51.5L-365.8-141.5z"/>
	<path class="st1" d="M-365.8-150.5l88.7,51.5l90.3-52.5l-88.7-51.5L-365.8-150.5z"/>
	<g transform="translate(0 13)">
		<defs>
			<filter id="Adobe_OpacityMaskFilter" filterUnits="userSpaceOnUse" x="-322.3" y="-194.3" width="117.4" height="69.5">
				<feColorMatrix  type="matrix" values="1 0 0 0 0  0 1 0 0 0  0 0 1 0 0  0 0 0 1 0"/>
			</filter>
		</defs>
		<mask maskUnits="userSpaceOnUse" x="-322.3" y="-194.3" width="117.4" height="69.5" id="b_1_">
			<g class="st2">
				<path id="a_1_" class="st3" d="M-365.7-163.4l88.5,51.5l90.2-52.4l-88.5-51.5L-365.7-163.4z"/>
			</g>
		</mask>
		<g class="st4">
			<path class="st5" d="M-205.8-153.5l-67.6-39.3 M-321.4-137.7l45.1-26.2l-44.3-25.7 M-299.6-177.5l26.3-15.3 M-301.7-126.2
				l90.2-52.4"/>
		</g>
	</g>
	<path class="st6" d="M-365.8-150.5l88.7,51.5l90.3-52.5l-88.7-51.5L-365.8-150.5z"/>
	<ellipse class="st7" cx="-321.3" cy="-160.5" rx="8.5" ry="3.5"/>
	<ellipse class="st7" cx="-226.3" cy="-140.5" rx="8.5" ry="3.5"/>
	<ellipse class="st7" cx="-275.3" cy="-113.5" rx="8.5" ry="3.5"/>
	<path class="st8" d="M-320.8-216c11,0,20,9,20,20c0,9.7-15.3,30.4-19.1,35.5c-0.2,0.3-0.5,0.4-0.9,0.4c-0.3,0-0.7-0.2-0.9-0.4
		c-3.9-5.1-19.1-25.9-19.1-35.5C-340.8-207-331.8-216-320.8-216z"/>
	<g transform="translate(25)">
		<defs>
			<filter id="Adobe_OpacityMaskFilter_1_" filterUnits="userSpaceOnUse" x="-354.9" y="-205.4" width="18.1" height="17.8">
				<feColorMatrix  type="matrix" values="1 0 0 0 0  0 1 0 0 0  0 0 1 0 0  0 0 0 1 0"/>
			</filter>
		</defs>
		<mask maskUnits="userSpaceOnUse" x="-354.9" y="-205.4" width="18.1" height="17.8" id="d_1_">
			<g class="st9">
				<path id="c_1_" class="st3" d="M-345.8-215.9c11,0,19.9,8.9,19.9,20c0,9.6-15.2,30.4-19,35.5c-0.2,0.3-0.5,0.4-0.9,0.4
					c-0.3,0-0.7-0.2-0.9-0.4c-3.8-5.1-19-25.8-19-35.5C-365.8-207-356.8-215.9-345.8-215.9L-345.8-215.9z"/>
			</g>
		</mask>
		<path class="st10" d="M-352.8-203.5h13.8l-0.9-1h-12.1L-352.8-203.5L-352.8-203.5z M-337.2-203.2c0.3,0.3,0.5,0.8,0.5,1.3v12.4
			c0,1.1-0.9,2-2,2h-14.1c-1.1,0-2-0.9-2-2V-202c0-0.5,0.2-0.9,0.5-1.3l1.4-1.7c0.3-0.3,0.7-0.5,1.2-0.5h12.1c0.5,0,0.9,0.2,1.2,0.5
			C-338.6-204.9-337.2-203.2-337.2-203.2z M-351.9-190.6h6v-3h-6V-190.6z"/>
	</g>
	<path class="st8" d="M-226.8-198c11,0,20,9,20,20c0,9.7-15.3,30.4-19.1,35.5c-0.2,0.3-0.5,0.4-0.9,0.4c-0.3,0-0.7-0.2-0.9-0.4
		c-3.9-5.1-19.1-25.9-19.1-35.5C-246.8-189-237.8-198-226.8-198z"/>
	<g transform="translate(119 18)">
		<defs>
			<filter id="Adobe_OpacityMaskFilter_2_" filterUnits="userSpaceOnUse" x="-354.9" y="-205.4" width="18.1" height="17.8">
				<feColorMatrix  type="matrix" values="1 0 0 0 0  0 1 0 0 0  0 0 1 0 0  0 0 0 1 0"/>
			</filter>
		</defs>
		<mask maskUnits="userSpaceOnUse" x="-354.9" y="-205.4" width="18.1" height="17.8" id="f_1_">
			<g class="st11">
				<path id="e_1_" class="st3" d="M-345.8-215.9c11,0,19.9,9,19.9,20c0,9.6-15.2,30.4-19,35.5c-0.2,0.3-0.5,0.4-0.9,0.4
					c-0.3,0-0.7-0.2-0.9-0.4c-3.8-5.1-19-25.8-19-35.5C-365.8-206.9-356.8-215.9-345.8-215.9z"/>
			</g>
		</mask>
		<path class="st12" d="M-352.8-203.4h13.8l-0.9-1h-12.1L-352.8-203.4z M-337.2-203.2c0.3,0.3,0.5,0.8,0.5,1.3v12.4c0,1.1-0.9,2-2,2
			h-14.1c-1.1,0-2-0.9-2-2v-12.4c0-0.5,0.2-0.9,0.5-1.3l1.4-1.7c0.3-0.3,0.7-0.5,1.2-0.5h12.1c0.5,0,0.9,0.2,1.2,0.5
			C-338.6-204.9-337.2-203.2-337.2-203.2z M-351.9-190.5h6v-3h-6V-190.5z"/>
	</g>
	<path class="st8" d="M-275.8-169c11,0,20,9,20,20c0,9.7-15.3,30.4-19.1,35.5c-0.2,0.3-0.5,0.4-0.9,0.4c-0.3,0-0.7-0.2-0.9-0.4
		c-3.9-5.1-19.1-25.9-19.1-35.5C-295.8-160-286.8-169-275.8-169z"/>
	<g transform="translate(70 47)">
		<defs>
			<filter id="Adobe_OpacityMaskFilter_3_" filterUnits="userSpaceOnUse" x="-354.8" y="-205.4" width="18.1" height="17.8">
				<feColorMatrix  type="matrix" values="1 0 0 0 0  0 1 0 0 0  0 0 1 0 0  0 0 0 1 0"/>
			</filter>
		</defs>
		<mask maskUnits="userSpaceOnUse" x="-354.8" y="-205.4" width="18.1" height="17.8" id="h_1_">
			<g class="st13">
				<path id="g_1_" class="st3" d="M-345.7-215.8c11,0,19.9,8.9,19.9,19.9c0,9.6-15.2,30.3-19,35.4c-0.2,0.3-0.5,0.4-0.9,0.4
					c-0.3,0-0.7-0.2-0.9-0.4c-3.9-5.1-19-25.8-19-35.4C-365.7-206.9-356.7-215.8-345.7-215.8L-345.7-215.8z"/>
			</g>
		</mask>
		<path class="st14" d="M-352.7-203.4h13.8l-0.9-1h-12.1L-352.7-203.4z M-337.1-203.2c0.3,0.3,0.5,0.8,0.5,1.3v12.4c0,1.1-0.9,2-2,2
			h-14.1c-1.1,0-2-0.9-2-2V-202c0-0.5,0.2-0.9,0.5-1.3l1.4-1.7c0.3-0.3,0.7-0.5,1.2-0.5h12.1c0.5,0,0.9,0.2,1.2,0.5L-337.1-203.2
			L-337.1-203.2z M-351.8-190.6h6v-3h-6C-351.8-193.6-351.8-190.6-351.8-190.6z"/>
	</g>
</g>
<g>
	<g>
		<g>
			<path class="st15" d="M504.9-137.7c8.9,6.5,19.6,6.1,19.6,3.1s-6.2-1.7-7.9-3c-1.7-1.3,4.2-2,3.1-3.9c-1.1-1.8-7.2,0.5-9-0.8
				c-1.8-1.3,1.4-5.8-1.2-6.6c-2.5-0.8-3.5,3.5-5.2,2.3c-1.7-1.3,0-5.8-4.1-5.8s-4.6,7.9,4.3,14.4"/>
			<path class="st16" d="M504.7-137.9L504.7-137.9c-9-6.6-8.4-14.5-4.4-14.5c4.1,0,2.3,4.5,4.1,5.8c0.2,0.1,0.3,0.2,0.5,0.2
				C502.7-144.3,501.5-140.2,504.7-137.9L504.7-137.9z"/>
			<path class="st17" d="M505.2-138.2c-8.3-6.1-15.2-11-23.5-4.9c-1.8,1.3-3.5,3-5,4.9c-3,3.9-5.2,8.7-5.4,13c0,0.6,0,1.2,0,1.8
				c0.2,2.9,1.3,5.4,3.8,7.2c3.6,2.7,9.6,3.3,15.8,2.5c7.9-0.9,16.3-4,21-7.4C520.1-127,513.5-132.1,505.2-138.2z"/>
			<path class="st18" d="M475.1-116c-8.3-6.1-1.7-20.9,6.6-27c8.3-6.1,15.2-1.3,23.5,4.9c-3.9-2.9-7.2-5.1-15.5,1
				C481.4-131,471.2-118.9,475.1-116z"/>
		</g>
		<g>
			<path class="st15" d="M437.2-137.7c8.9,6.5,19.6,6.1,19.6,3.1s-6.2-1.7-7.9-3c-1.7-1.3,4.2-2,3.1-3.9c-1.1-1.8-7.2,0.5-9-0.8
				c-1.8-1.3,1.4-5.8-1.2-6.6c-2.5-0.8-3.5,3.5-5.2,2.3s0-5.8-4.1-5.8s-4.6,7.9,4.3,14.4"/>
			<path class="st16" d="M437-137.9L437-137.9c-9-6.6-8.4-14.5-4.4-14.5c4.1,0,2.3,4.5,4.1,5.8c0.2,0.1,0.3,0.2,0.5,0.2
				C435.1-144.3,433.8-140.2,437-137.9L437-137.9z"/>
			<path class="st17" d="M437.5-138.2c-8.3-6.1-15.2-11-23.5-4.9c-1.8,1.3-3.5,3-5,4.9c-3,3.9-5.2,8.7-5.4,13c0,0.6,0,1.2,0,1.8
				c0.2,2.9,1.3,5.4,3.8,7.2c3.6,2.7,9.6,3.3,15.8,2.5c7.9-0.9,16.3-4,21-7.4C452.4-127,445.8-132.1,437.5-138.2z"/>
			<path class="st18" d="M407.4-116c-8.3-6.1-1.7-20.9,6.6-27c8.3-6.1,15.2-1.3,23.5,4.9c-3.9-2.9-7.2-5.1-15.5,1
				C413.7-131,403.5-118.9,407.4-116z"/>
		</g>
		<path class="st19" d="M523.6-47.3c-38.8,2-77.5,2.3-116.3,0.7c-5.3-0.2-10.7-0.5-16-0.7c-4.2-18.2-4.8-36.5-1.7-54.7
			c0.5-2.9,1.1-5.8,1.7-8.7c44.1-2.3,88.2-2.3,132.3,0C528.4-89.6,528.4-68.4,523.6-47.3L523.6-47.3z"/>
		<path class="st20" d="M407.3-46.6c-5.3-0.2-10.7-0.5-16-0.7c-4.2-18.2-4.8-36.5-1.7-54.7l14.7,6.9
			C404.3-95.1,400.3-62.9,407.3-46.6z"/>
		<path class="st21" d="M525.8-59.6c-0.6,4.1-1.3,8.2-2.3,12.2c-38.8,2-77.5,2.3-116.3,0.7c-5.3-0.2-10.7-0.5-16-0.7
			c-0.9-4.1-1.7-8.2-2.3-12.2c5,0.3,10.1,0.5,15.1,0.7C444.7-57.3,485.3-57.5,525.8-59.6z"/>
		<path class="st22" d="M407.3-46.6c-5.3-0.2-10.7-0.5-16-0.7c-0.9-4.1-1.7-8.2-2.3-12.2c5,0.3,10.1,0.5,15.1,0.7
			C404.8-54.3,405.8-50.1,407.3-46.6z"/>
		<path class="st23" d="M534.8-102.2v-4.1c0-5.4-5.9-9.7-13.2-9.7H396.1c-7.3,0-13.2,4.4-13.2,9.7v4.1c0,8.4,2.7,15.7,16.2,15.7
			c13.5,0,15.9-11.8,26.6-11.8c10.7,0,12.5,13.4,33.1,13.4c20.7,0,22.4-13.4,33.1-13.4c10.7,0,13.1,11.8,26.6,11.8
			S534.8-93.7,534.8-102.2L534.8-102.2z"/>
		<path class="st24" d="M401.3-106.2v4.1c0,4.2,0.7,8.1,3,11c0.9,1.1,2,2,3.4,2.7c-2.3,1.2-5.1,2-8.6,2c-6.8,0-10.8-1.8-13.2-4.7
			c-2.4-2.9-3-6.8-3-11v-4.1c0-5.4,5.9-9.7,13.2-9.7h18.4C407.2-116,401.3-111.6,401.3-106.2L401.3-106.2z"/>
	</g>
	<g>
		<path d="M490.3-136.7c0.9-0.7,0.9-1.7,0-2.4c-0.9-0.7-2.3-0.7-3.2,0l-2.2,1.6c-0.9,0.7-0.9,1.7,0,2.4c0.4,0.3,1,0.5,1.6,0.5
			s1.2-0.2,1.6-0.5L490.3-136.7z"/>
		<path d="M495.1-133.1l-2.2,1.6c-0.9,0.7-0.9,1.7,0,2.4c0.4,0.3,1,0.5,1.6,0.5s1.2-0.2,1.6-0.5l2.2-1.6c0.9-0.7,0.9-1.7,0-2.4
			C497.5-133.8,496-133.8,495.1-133.1L495.1-133.1z"/>
		<path d="M502.7-122.7c0.6,0,1.2-0.2,1.6-0.5l2.2-1.6c0.9-0.7,0.9-1.7,0-2.4c-0.9-0.7-2.3-0.7-3.2,0l-2.2,1.6
			c-0.9,0.7-0.9,1.7,0,2.4C501.5-122.9,502.1-122.7,502.7-122.7L502.7-122.7z"/>
		<path d="M481.7-129.3l-2.2,1.6c-0.9,0.7-0.9,1.7,0,2.4c0.4,0.3,1,0.5,1.6,0.5s1.2-0.2,1.6-0.5l2.2-1.6c0.9-0.7,0.9-1.7,0-2.4
			C484.1-129.9,482.6-129.9,481.7-129.3L481.7-129.3z"/>
		<path d="M489.8-123.3l-2.2,1.6c-0.9,0.7-0.9,1.7,0,2.4c0.4,0.3,1,0.5,1.6,0.5c0.6,0,1.2-0.2,1.6-0.5l2.2-1.6
			c0.9-0.7,0.9-1.7,0-2.4C492.2-124,490.7-124,489.8-123.3L489.8-123.3z"/>
		<path d="M419.3-139.1l-2.2,1.6c-0.9,0.7-0.9,1.7,0,2.4c0.4,0.3,1,0.5,1.6,0.5c0.6,0,1.2-0.2,1.6-0.5l2.2-1.6
			c0.9-0.7,0.9-1.7,0-2.4C421.7-139.8,420.2-139.8,419.3-139.1L419.3-139.1z"/>
		<path d="M428.5-129.2l2.2-1.6c0.9-0.7,0.9-1.7,0-2.4c-0.9-0.7-2.3-0.7-3.2,0l-2.2,1.6c-0.9,0.7-0.9,1.7,0,2.4
			c0.4,0.3,1,0.5,1.6,0.5C427.5-128.7,428.1-128.8,428.5-129.2L428.5-129.2z"/>
		<path d="M436.6-123.2l2.2-1.6c0.9-0.7,0.9-1.7,0-2.4c-0.9-0.7-2.3-0.7-3.2,0l-2.2,1.6c-0.9,0.7-0.9,1.7,0,2.4
			c0.4,0.3,1,0.5,1.6,0.5S436.2-122.9,436.6-123.2L436.6-123.2z"/>
		<path d="M414-129.3l-2.2,1.6c-0.9,0.7-0.9,1.7,0,2.4c0.4,0.3,1,0.5,1.6,0.5s1.2-0.2,1.6-0.5l2.2-1.6c0.9-0.7,0.9-1.7,0-2.4
			C416.4-129.9,414.9-129.9,414-129.3z"/>
		<path d="M422.1-123.3l-2.2,1.6c-0.9,0.7-0.9,1.7,0,2.4c0.4,0.3,1,0.5,1.6,0.5s1.2-0.2,1.6-0.5l2.2-1.6c0.9-0.7,0.9-1.7,0-2.4
			C424.5-124,423-124,422.1-123.3L422.1-123.3z"/>
		<path d="M513.7-67.3l-0.1,0.1c-0.9,0.7-0.8,1.7,0.1,2.4c0.4,0.3,1,0.5,1.6,0.5c0.6,0,1.2-0.2,1.7-0.5L517-65
			c0.9-0.7,0.8-1.7-0.1-2.4C516-68.1,514.6-68,513.7-67.3z"/>
		<path d="M519.1-70.7c0.9-0.7,0.8-1.7-0.1-2.4s-2.4-0.6-3.2,0.1l-0.1,0.1c-0.9,0.7-0.8,1.7,0.1,2.4c0.4,0.3,1,0.5,1.6,0.5
			c0.6,0,1.2-0.2,1.7-0.5L519.1-70.7z"/>
		<path d="M507.9-71.4l-0.1,0.1c-0.9,0.7-0.8,1.7,0.1,2.4c0.4,0.3,1,0.5,1.6,0.5c0.6,0,1.2-0.2,1.7-0.5l0.1-0.1
			c0.9-0.7,0.8-1.7-0.1-2.4S508.8-72.1,507.9-71.4z"/>
		<path d="M400.5-75.9l-0.1,0.1c-0.9,0.7-0.8,1.7,0.1,2.4c0.4,0.3,1,0.5,1.6,0.5c0.6,0,1.2-0.2,1.7-0.5l0.1-0.1
			c0.9-0.7,0.8-1.7-0.1-2.4C402.8-76.6,401.3-76.5,400.5-75.9z"/>
		<path d="M405.9-79.2c0.9-0.7,0.8-1.7-0.1-2.4c-0.9-0.6-2.4-0.6-3.2,0.1l-0.1,0.1c-0.9,0.7-0.8,1.7,0.1,2.4c0.4,0.3,1,0.5,1.6,0.5
			c0.6,0,1.2-0.2,1.7-0.5L405.9-79.2z"/>
		<path d="M394.6-79.9l-0.1,0.1c-0.9,0.7-0.8,1.7,0.1,2.4c0.4,0.3,1,0.5,1.6,0.5c0.6,0,1.2-0.2,1.7-0.5l0.1-0.1
			c0.9-0.7,0.8-1.7-0.1-2.4S395.5-80.6,394.6-79.9z"/>
		<path d="M521.5-117.7h-11.4c1.2-0.7,2.3-1.3,3.3-2c4.5-3.3,5.6-6.8,3.4-10.5c-0.2-0.3-0.4-0.6-0.6-0.9c1.2,0.2,2.4,0.3,3.5,0.3
			c1.7,0,3.3-0.2,4.5-0.7c1.7-0.7,2.6-1.8,2.6-3c0-3.3-4.3-3.7-6.5-3.9c1.2-0.8,2.5-2,1.5-3.6c-1.3-2.1-4.7-1.8-7-1.6
			c-0.7,0.1-1.8,0.2-2.4,0.1c0-0.4,0.1-1.2,0.2-1.8c0.3-1.7,0.8-4.2-2.1-5.2c-2.2-0.7-3.9,0.2-4.9,1.1c-0.3-1.6-0.9-4.7-5.3-4.7
			c-1.7,0-3.2,0.7-4.1,1.9c-1.1,1.5-1.3,3.6-0.6,5.9c-0.4-0.2-0.8-0.3-1.2-0.4c-5-1.6-9.8-0.8-14.3,2.5c-1.9,1.4-3.7,3.2-5.3,5.3
			c-3.4,4.4-5.5,9.4-5.7,13.8c0,0.6,0,1.3,0,1.9c0.1,2.1,0.7,4,1.8,5.5h-28.3c1.2-0.7,2.3-1.3,3.3-2c4.5-3.3,5.6-6.8,3.4-10.5
			c-0.2-0.3-0.4-0.6-0.6-0.9c1.2,0.2,2.4,0.3,3.5,0.3c1.7,0,3.3-0.2,4.5-0.7c1.7-0.7,2.6-1.8,2.6-3c0-3.3-4.3-3.7-6.5-3.9
			c1.2-0.8,2.5-2,1.5-3.6c-1.3-2.1-4.7-1.8-7-1.6c-0.7,0.1-1.8,0.2-2.4,0.1c0-0.4,0.1-1.2,0.2-1.8c0.3-1.7,0.8-4.2-2.1-5.2
			c-2.2-0.7-3.9,0.2-4.9,1.1c-0.3-1.6-0.9-4.7-5.3-4.7c-1.7,0-3.2,0.7-4.1,1.9c-1.1,1.5-1.3,3.6-0.6,5.9c-3.6-1.4-7.3-1.8-11.3-0.3
			c-1.1,0.4-1.6,1.4-1,2.3c0.6,0.8,2,1.1,3.1,0.7c5-1.9,9.8,1.2,17.2,6.6c9.5,7,12.8,10.3,6.6,14.9c-2.2,1.6-5.4,3.2-9,4.4h-25
			c-1.6-1.4-2.4-3.3-2.6-5.7c0-0.5,0-1.1,0-1.6c0.2-3.8,2.2-8.4,5.1-12.3c0.6-0.8,1.3-1.5,1.9-2.2c0.7-0.8,0.5-1.8-0.5-2.3
			c-1-0.5-2.5-0.4-3.2,0.4c-0.7,0.8-1.5,1.6-2.2,2.5c-3.4,4.4-5.5,9.4-5.7,13.8c0,0.6,0,1.3,0,1.9c0.1,2.1,0.7,4,1.8,5.5h-6.9
			c-8.6,0-15.5,5.1-15.5,11.4v4.1c0,4.6,0.7,10.1,5.1,13.6c-0.9,13.8,0.2,27.8,3.3,41.5c0.2,0.8,1,1.3,2.1,1.4
			c22,1.2,44.1,1.7,66.3,1.7s44.3-0.6,66.3-1.7c1.1-0.1,1.9-0.6,2.1-1.4c2.1-9,3.3-18,3.6-27c0-0.9-1-1.7-2.2-1.7
			c-1.3,0-2.3,0.7-2.4,1.6c-0.2,4.3-0.5,8.6-1.1,13c-44,2.2-88.6,2.2-132.6,0c-1.1-8.3-1.4-16.7-1-25c2.4,0.8,5.3,1.3,8.9,1.3
			c8.2,0,12.7-3.7,16.7-7c3.2-2.6,5.9-4.8,9.9-4.8c3.5,0,5.9,2,9.1,4.5c4.9,4,11,8.9,24,8.9s19.1-4.9,24-8.9
			c3.1-2.5,5.6-4.5,9.1-4.5c4,0,6.8,2.2,9.9,4.8c4,3.3,8.5,7,16.7,7c2.3,0,4.4-0.2,6.2-0.6c0.1,1.5,0.1,3.1,0.1,4.6
			c0,0.9,1,1.7,2.3,1.7h0c1.3,0,2.3-0.8,2.3-1.7c0-2-0.1-4-0.2-6c6.8-3.3,7.8-9.9,7.8-15.3v-4.1
			C537.1-112.5,530.1-117.7,521.5-117.7L521.5-117.7z M435.1-142.3c-3.7-4.2-3.2-7.9-2.4-8.4c0.1,0,0.2,0,0.2,0
			c0.3,0.2,0.5,1.3,0.6,1.9c0.2,1.2,0.4,2.5,1.6,3.4c1,0.7,2,0.8,2.5,0.7c1.4-0.1,2.3-0.8,2.9-1.5c0,0.2-0.1,0.4-0.1,0.5
			c-0.3,1.6-0.6,3.4,1,4.7c1.7,1.2,4.1,1,6.3,0.7c0.2,0,0.4,0,0.7-0.1c-1,0.5-2,1.1-2.1,2.2c0,0.4,0,1.1,1,1.9c1.2,0.9,3,1,4.6,1.2
			c0.8,0.1,2.3,0.2,2.5,0.4c0,0,0,0,0,0.1c-0.7,0.6-5.7,0.9-11.5-1.8c-1.3-1-2.6-2-4-3C437.8-140.3,436.4-141.3,435.1-142.3z
			 M500.3-150.7c0.1,0,0.2,0,0.2,0c0.3,0.2,0.5,1.3,0.6,1.9c0.2,1.2,0.4,2.5,1.6,3.4c1,0.7,2,0.8,2.5,0.7c1.4-0.1,2.3-0.8,2.9-1.5
			c0,0.2-0.1,0.4-0.1,0.5c-0.3,1.6-0.6,3.4,1,4.7c1.7,1.2,4.1,1,6.3,0.7c0.2,0,0.4,0,0.7-0.1c-1,0.5-2,1.1-2.1,2.2
			c0,0.4,0,1.1,1,1.9c1.2,0.9,3,1,4.6,1.2c0.8,0.1,2.3,0.2,2.5,0.4c0,0,0,0,0,0.1c-0.7,0.6-5.7,0.9-11.5-1.8c-1.3-1-2.6-2-4-3
			c-1.3-1-2.7-2-4.1-2.9C499.1-146.5,499.5-150.2,500.3-150.7L500.3-150.7z M473.6-123.4c0-0.5,0-1.1,0-1.6
			c0.2-3.8,2.2-8.4,5.1-12.3c1.4-1.8,3-3.4,4.6-4.6c3.2-2.3,5.9-2.9,9.2-1.8c3.5,1.1,7.3,3.9,11.1,6.7c3.7,2.7,7.5,5.5,9.1,8.1
			c1.4,2.4,0.7,4.5-2.5,6.8c-2.2,1.6-5.4,3.2-9,4.4h-25C474.6-119,473.7-120.9,473.6-123.4L473.6-123.4z M457.4-56.1
			c22,0,44-0.5,65.8-1.6c-0.5,3-1,5.9-1.7,8.8c-42.6,2.2-85.7,2.2-128.3,0c-0.6-2.9-1.2-5.9-1.6-8.8
			C413.5-56.7,435.5-56.1,457.4-56.1L457.4-56.1z M532.5-102.2c0,9.9-4,14-13.9,14c-6.1,0-9.6-2.8-13.3-5.9
			C501.7-97,498-100,492-100c-5.5,0-8.9,2.7-12.5,5.6c-4.5,3.6-9.6,7.8-20.6,7.8c-11,0-16.1-4.1-20.6-7.8c-3.6-2.9-7-5.6-12.5-5.6
			c-6.1,0-9.8,3-13.3,5.9c-3.7,3-7.2,5.9-13.3,5.9c-9.9,0-13.9-4.1-13.9-14v-4.1c0-4.4,4.9-8,10.9-8h11.3c0,0,0,0,0.1,0
			c0,0,0,0,0.1,0h114c6,0,10.9,3.6,10.9,8V-102.2z"/>
	</g>
</g>
<g>
	<g>
		<g>
			<g>
				<path class="st25" d="M138.3,24c0,6-5.7,10.9-12.7,10.9c-7,0-12.7-4.9-12.7-10.9s5.7-16.7,12.7-16.7
					C132.6,7.2,138.3,18,138.3,24L138.3,24z"/>
				<path class="st26" d="M138.3,24c0,6-5.7,10.9-12.7,10.9c-2.8,0-5.4-0.8-7.5-2.1c8.6-1.6,15-8.1,15-15.9c0-2.7-0.8-5.3-2.2-7.6
					C135.3,12.7,138.3,19.6,138.3,24z"/>
			</g>
			<g>
				<ellipse class="st27" cx="119.3" cy="23" rx="1.6" ry="1.9"/>
				<ellipse class="st27" cx="122.3" cy="28.5" rx="1.6" ry="1.9"/>
				<ellipse class="st28" cx="129.7" cy="27.8" rx="1.6" ry="1.9"/>
				<ellipse class="st28" cx="132.5" cy="22.1" rx="1.6" ry="1.9"/>
				<g>
					<ellipse class="st27" cx="129.7" cy="16.5" rx="1.6" ry="1.9"/>
					<ellipse class="st27" cx="126.2" cy="21.9" rx="1.6" ry="1.9"/>
					<ellipse class="st27" cx="122.4" cy="16.5" rx="1.6" ry="1.9"/>
				</g>
			</g>
		</g>
		<g>
			<g>
				<path class="st25" d="M104.1,24c0,6-5.7,10.9-12.7,10.9c-7,0-12.7-4.9-12.7-10.9S84.3,7.2,91.4,7.2S104.1,18,104.1,24z"/>
				<path class="st26" d="M104.1,24c0,6-5.7,10.9-12.7,10.9c-2.8,0-5.4-0.8-7.5-2.1c8.6-1.6,15-8.1,15-15.9c0-2.7-0.8-5.3-2.2-7.6
					C101.1,12.7,104.1,19.6,104.1,24z"/>
			</g>
			<g>
				<ellipse class="st27" cx="85.1" cy="23" rx="1.6" ry="1.9"/>
				<ellipse class="st27" cx="88.1" cy="28.5" rx="1.6" ry="1.9"/>
				<ellipse class="st28" cx="95.5" cy="27.8" rx="1.6" ry="1.9"/>
				<ellipse class="st28" cx="98.3" cy="22.1" rx="1.6" ry="1.9"/>
				<g>
					<ellipse class="st27" cx="95.5" cy="16.5" rx="1.6" ry="1.9"/>
					<ellipse class="st27" cx="92" cy="21.9" rx="1.6" ry="1.9"/>
					<ellipse class="st27" cx="88.2" cy="16.5" rx="1.6" ry="1.9"/>
				</g>
			</g>
		</g>
		<g>
			<g>
				<path class="st25" d="M69.9,24c0,6-5.7,10.9-12.7,10.9S44.5,30,44.5,24S50.2,7.2,57.2,7.2S69.9,18,69.9,24z"/>
				<path class="st26" d="M69.9,24c0,6-5.7,10.9-12.7,10.9c-2.8,0-5.4-0.8-7.5-2.1c8.6-1.6,15-8.1,15-15.9c0-2.7-0.8-5.3-2.2-7.6
					C66.9,12.7,69.9,19.6,69.9,24L69.9,24z"/>
			</g>
			<g>
				<ellipse class="st27" cx="50.9" cy="23" rx="1.6" ry="1.9"/>
				<ellipse class="st27" cx="54" cy="28.5" rx="1.6" ry="1.9"/>
				<ellipse class="st28" cx="61.3" cy="27.8" rx="1.6" ry="1.9"/>
				<ellipse class="st28" cx="64.1" cy="22.1" rx="1.6" ry="1.9"/>
				<g>
					<ellipse class="st27" cx="61.3" cy="16.5" rx="1.6" ry="1.9"/>
					<ellipse class="st27" cx="57.8" cy="21.9" rx="1.6" ry="1.9"/>
					<ellipse class="st27" cx="54" cy="16.5" rx="1.6" ry="1.9"/>
				</g>
			</g>
		</g>
	</g>
	<path class="st29" d="M27.5,33.1h127.7v69.2H27.5L27.5,33.1z"/>
	<path class="st30" d="M155.2,33.1v69.2h-50.5c20.1-12,33.3-31.9,33.3-54.4c0-5.1-0.7-10-1.9-14.8L155.2,33.1z"/>
	<path class="st31" d="M27.5,56.2h127.7v30H27.5L27.5,56.2z"/>
	<path class="st32" d="M155.2,56.2v30h-31.5c7.2-8.7,12-18.9,13.7-30L155.2,56.2z"/>
	<g>
		<path class="st28" d="M27.5,62h127.7v18.5H27.5L27.5,62z"/>
		<path class="st33" d="M155.2,62v18.5H128c3.8-5.7,6.6-11.9,8.3-18.5H155.2z"/>
		<path class="st25" d="M27.5,67.7h127.7v7H27.5L27.5,67.7z"/>
	</g>
	<path class="st34" d="M151.6,119.1H31.5c-3.8,0-6.8-2.6-6.8-5.8v-5.2h133.7v5.2C158.4,116.5,155.3,119.1,151.6,119.1z"/>
	<path class="st35" d="M166.5,111.4H16.6c-1.7,0-3-1.2-3-2.6v-7.4c0-1.4,1.4-2.6,3-2.6h149.9c1.7,0,3,1.2,3,2.6v7.4
		C169.5,110.2,168.2,111.4,166.5,111.4z"/>
	<path class="st36" d="M94.6,98.8h-60c-4.1,0-7.4,2.8-7.4,6.3c0,3.5,3.3,6.3,7.4,6.3h60c4.1,0,7.4-2.8,7.4-6.3
		C102,101.6,98.7,98.8,94.6,98.8z"/>
	<path class="st37" d="M61.3,98.8h-13c-4.1,0-7.4,2.8-7.4,6.3c0,3.5,3.3,6.3,7.4,6.3h13c4.1,0,7.4-2.8,7.4-6.3
		C68.7,101.6,65.4,98.8,61.3,98.8z"/>
	<path class="st31" d="M159.3,44.2c0,1.9-2.2,3.1-4.2,2.4c-3-1.1-4.4-3.1-9.4-3.1c-6.8,0-6.8,3.8-13.6,3.8c-6.8,0-6.8-3.8-13.6-3.8
		c-6.8,0-6.8,3.8-13.6,3.8s-6.8-3.8-13.6-3.8c-6.8,0-6.8,3.8-13.6,3.8c-6.8,0-6.8-3.8-13.6-3.8c-6.8,0-6.8,3.8-13.6,3.8
		c-6.8,0-6.8-3.8-13.6-3.8c-5,0-6.3,2-9.4,3.1c-2,0.7-4.2-0.5-4.2-2.4V33.3c0-2.4,2.3-4.3,5-4.3h125.7c2.8,0,5,1.9,5,4.3V44.2z"/>
	<path class="st38" d="M102.7,29H44.1c-3.5,0-6.3,2.4-6.3,5.4c0,3,2.8,5.4,6.3,5.4h58.6c3.5,0,6.3-2.4,6.3-5.4
		C109,31.4,106.2,29,102.7,29z"/>
	<path class="st26" d="M155.2,67.7v7h-23.8c1.2-2.3,2.2-4.6,3.1-7H155.2z"/>
	<path class="st32" d="M159.3,33.3v10.9c0,1.9-2.2,3.1-4.2,2.4c-3-1.1-4.4-3.1-9.4-3.1c-4,0-5.6,1.3-7.7,2.4
		c-0.2-4.4-0.8-8.6-1.9-12.7l-1.2-4.1h19.4C157,29,159.3,30.9,159.3,33.3z"/>
</g>
</svg>
