<?xml version="1.0" encoding="utf-8"?>
<!-- Generator: Adobe Illustrator 23.0.1, SVG Export Plug-In . SVG Version: 6.00 Build 0)  -->
<svg version="1.1" id="Layer_1" xmlns="http://www.w3.org/2000/svg" xmlns:xlink="http://www.w3.org/1999/xlink" x="0px" y="0px"
	 viewBox="0 0 166 86" style="enable-background:new 0 0 166 86;" xml:space="preserve">
<style type="text/css">
	.st0{fill-rule:evenodd;clip-rule:evenodd;fill:#B3B8C5;}
	.st1{fill-rule:evenodd;clip-rule:evenodd;fill:#FFFFFF;}
	.st2{filter:url(#Adobe_OpacityMaskFilter);}
	.st3{mask:url(#b_1_);}
	.st4{fill-rule:evenodd;clip-rule:evenodd;fill:#81889E;}
	.st5{fill-rule:evenodd;clip-rule:evenodd;fill:#505A78;}
	.st6{fill-rule:evenodd;clip-rule:evenodd;fill:#DCDEE4;}
	.st7{filter:url(#Adobe_OpacityMaskFilter_1_);}
	.st8{mask:url(#d_1_);}
	.st9{fill:none;stroke:#505A78;stroke-width:1.556;stroke-dasharray:108.9328,3.112,0.1559,3.112;}
	.st10{fill-rule:evenodd;clip-rule:evenodd;fill:#27B7FF;}
	.st11{fill:none;stroke:#505A78;stroke-width:1.167;stroke-dasharray:116.7133,2.3343,0.1167,2.3343;}
	.st12{fill:none;stroke:#505A78;stroke-width:1.167;stroke-dasharray:9.3371,2.3343,0.1167,2.3343;}
	.st13{fill:#FFDBCF;}
	.st14{fill:#FFCCB7;}
	.st15{fill:#7F392C;}
	.st16{fill:#6D281F;}
	.st17{fill:#A1412B;}
	.st18{fill:#B55434;}
	.st19{fill:#FE255F;}
	.st20{fill:#E01152;}
	.st21{fill:#FC709B;}
	.st22{fill:#F7A6C1;}
	.st23{fill:#EF927D;}
	.st24{fill:#DB765A;}
	.st25{fill:#FFC2D9;}
	.st26{fill:#FFECE6;}
	.st27{fill:#FFF7F5;}
	.st28{fill:#A9CFFC;}
	.st29{fill:#CBE1FF;}
	.st30{fill:#E3F0FF;}
</style>
<g>
	<g transform="translate(31 1)">
		<ellipse class="st0" cx="-388" cy="-111.7" rx="66.6" ry="1.5"/>
		<path class="st1" d="M-356.9-181.2h17.8l18.2,24.3v30.3l-17.6-0.1c0-0.1,0-0.3,0-0.5c0-7.1-5.8-12.9-12.9-12.9
			s-12.9,5.8-12.9,12.9c0,0.1,0,0.2,0,0.3L-411-127v-0.1c0-7.1-5.8-12.9-12.9-12.9c-7.1,0-12.9,5.8-12.9,12.9l-17.3-0.1v-55.7
			c0-6.7,5.4-12.1,12.1-12.1h85.1L-356.9-181.2L-356.9-181.2z"/>
		<g transform="translate(.624)">
			<defs>
				<filter id="Adobe_OpacityMaskFilter" filterUnits="userSpaceOnUse" x="-455.7" y="-183.4" width="135.4" height="59.6">
					<feColorMatrix  type="matrix" values="1 0 0 0 0  0 1 0 0 0  0 0 1 0 0  0 0 0 1 0"/>
				</filter>
			</defs>
			<mask maskUnits="userSpaceOnUse" x="-455.7" y="-183.4" width="135.4" height="59.6" id="b_1_">
				<g class="st2">
					<path id="a_1_" class="st1" d="M-357.5-181.2h17.8l18.2,24.3v30.3l-17.6-0.1c0-0.1,0-0.3,0-0.5c0-7.1-5.8-12.9-12.9-12.9
						s-12.9,5.8-12.9,12.9c0,0.1,0,0.2,0,0.3l-46.8-0.2v-0.1c0-7.1-5.8-12.9-12.9-12.9c-7.1,0-12.9,5.8-12.9,12.9l-17.3-0.1v-55.7
						c0-6.7,5.4-12.1,12.1-12.1h85.1V-181.2z"/>
				</g>
			</mask>
			<g class="st3">
				<path class="st4" d="M-454.8-139.2h30.2v12.1h-30.2V-139.2z"/>
				<path class="st5" d="M-424.4-140.2l0.2,0l0.2,0.1l0.1,0.1l0.1,0.1l0.1,0.1l0.1,0.2l0,0.2l0,0.2v12.1l0,0.2l0,0.2l-0.1,0.2
					l-0.1,0.1l-0.1,0.1l-0.1,0.1l-0.2,0.1l-0.2,0l-0.2,0h-30.2l-0.2,0l-0.2,0l-0.2-0.1l-0.1-0.1l-0.1-0.1l-0.1-0.1l-0.1-0.2l0-0.2
					l0-0.2v-12.1l0-0.2l0-0.2l0.1-0.2l0.1-0.1l0.1-0.1l0.1-0.1l0.2-0.1l0.2,0l0.2,0h30.2L-424.4-140.2L-424.4-140.2z M-453.8-138.2
					v10.1h28.3v-10.1H-453.8L-453.8-138.2z"/>
				<path class="st4" d="M-417.1-132.6h57.3v7.8h-57.3V-132.6z"/>
				<path class="st5" d="M-359.7-133.6l0.2,0l0.2,0.1l0.1,0.1l0.1,0.1l0.1,0.1l0.1,0.2l0,0.2l0,0.2v7.8l0,0.2l0,0.2l-0.1,0.2
					l-0.1,0.1l-0.1,0.1l-0.1,0.1l-0.2,0.1l-0.2,0l-0.2,0h-57.3l-0.2,0l-0.2,0l-0.2-0.1l-0.1-0.1l-0.1-0.1l-0.1-0.1l-0.1-0.2l0-0.2
					l0-0.2v-7.8l0-0.2l0-0.2l0.1-0.2l0.1-0.1l0.1-0.1l0.1-0.1l0.2-0.1l0.2,0l0.2,0h57.3L-359.7-133.6z M-416.1-131.7v5.9h55.3v-5.9
					C-360.8-131.7-416.1-131.7-416.1-131.7z"/>
				<path class="st4" d="M-351.2-138.7h29.7v12.1h-29.7V-138.7z"/>
				<path class="st5" d="M-321.4-139.6l0.2,0l0.2,0.1l0.1,0.1l0.1,0.1l0.1,0.1l0.1,0.2l0,0.2l0,0.2v12.1l0,0.2l0,0.2l-0.1,0.2
					l-0.1,0.1l-0.1,0.1l-0.1,0.1l-0.2,0.1l-0.2,0l-0.2,0h-29.7l-0.2,0l-0.2,0l-0.2-0.1l-0.1-0.1l-0.1-0.1l-0.1-0.1l-0.1-0.2l0-0.2
					l0-0.2v-12.1l0-0.2l0-0.2l0.1-0.2l0.1-0.1l0.1-0.1l0.1-0.1l0.2-0.1l0.2,0l0.2,0h29.7L-321.4-139.6L-321.4-139.6z M-350.2-137.7
					v10.1h27.7v-10.1H-350.2L-350.2-137.7z"/>
				<path class="st6" d="M-357.9-172.1v15.2h27l-11.9-15.2H-357.9z"/>
				<path class="st5" d="M-342.6-173l0.1,0l0.1,0.1l0.1,0.1l0.1,0.1l0.1,0.1l11.9,15.2l0.1,0.1l0.1,0.2l0,0.2l0,0.2l0,0.2l0,0.2
					l-0.1,0.2l-0.1,0.1l-0.1,0.1l-0.1,0.1l-0.2,0.1l-0.2,0l-0.2,0h-27l-0.2,0l-0.2,0l-0.2-0.1l-0.1-0.1l-0.1-0.1l-0.1-0.1l-0.1-0.2
					l0-0.2l0-0.2v-15.2l0-0.2l0-0.2l0.1-0.2l0.1-0.1l0.1-0.1l0.1-0.1l0.2-0.1l0.2,0l0.2,0h15.1L-342.6-173L-342.6-173z
					 M-332.9-157.9l-10.3-13.2h-13.7v13.2L-332.9-157.9L-332.9-157.9z M-366.6-139.9l0.3,0.7v0l-0.3,0.7l-0.7,0.3h-42.9l-0.7-0.3
					l-0.3-0.7v0l0.3-0.7l0.7-0.3h42.9L-366.6-139.9z"/>
				<path class="st5" d="M-357.2-157.6l0.3,0.7v19.7l-0.3,0.7l-0.7,0.3h0l-0.7-0.3l-0.3-0.7v-19.7l0.3-0.7l0.7-0.3h0L-357.2-157.6z
					 M-330.2-157.6l0.3,0.7v18.2l-0.3,0.7l-0.7,0.3h0l-0.7-0.3l-0.3-0.7v-18.2l0.3-0.7l0.7-0.3h0L-330.2-157.6z M-348.4-152.8
					l0.3,0.7v0l-0.3,0.7l-0.7,0.3h-4.2l-0.7-0.3l-0.3-0.7v0l0.3-0.7l0.7-0.3h4.2L-348.4-152.8z"/>
				<path class="st0" d="M-454.8-182.4h5v38.3h-5V-182.4z"/>
				<path class="st5" d="M-449.5-183.4l0.2,0l0.2,0.1l0.1,0.1l0.1,0.1l0.1,0.1l0.1,0.2l0,0.2l0,0.2v38.3l0,0.2l0,0.2l-0.1,0.2
					l-0.1,0.1l-0.1,0.1l-0.1,0.1l-0.2,0.1l-0.2,0l-0.2,0h-5l-0.2,0l-0.2,0l-0.2-0.1l-0.1-0.1l-0.1-0.1l-0.1-0.1l-0.1-0.2l0-0.2
					l0-0.2v-38.3l0-0.2l0-0.2l0.1-0.2l0.1-0.1l0.1-0.1l0.1-0.1l0.2-0.1l0.2,0l0.2,0h5L-449.5-183.4L-449.5-183.4z M-453.8-181.4
					v36.4h3.1v-36.3L-453.8-181.4L-453.8-181.4z"/>
				<path class="st0" d="M-326.8-155.1h5.2v11.8h-5.2V-155.1z"/>
				<g transform="translate(127.916 40)">
					<defs>
						<filter id="Adobe_OpacityMaskFilter_1_" filterUnits="userSpaceOnUse" x="-452.8" y="-193.9" width="4.6" height="9.2">
							<feColorMatrix  type="matrix" values="1 0 0 0 0  0 1 0 0 0  0 0 1 0 0  0 0 0 1 0"/>
						</filter>
					</defs>
					<mask maskUnits="userSpaceOnUse" x="-452.8" y="-193.9" width="4.6" height="9.2" id="d_1_">
						<g class="st7">
							<path id="c_1_" class="st1" d="M-454.7-195.1h5.2v11.8h-5.2V-195.1z"/>
						</g>
					</mask>
					<g class="st8">
						<g transform="translate(1.872 1.25)">
							<ellipse class="st1" cx="-452.4" cy="-192.8" rx="2.3" ry="2.3"/>
							<ellipse class="st1" cx="-452.4" cy="-188.2" rx="2.3" ry="2.3"/>
						</g>
					</g>
				</g>
				<path class="st5" d="M-321.4-156.1l0.2,0l0.2,0.1l0.1,0.1l0.1,0.1l0.1,0.1l0.1,0.2l0,0.2l0,0.2v11.8l0,0.2l0,0.2l-0.1,0.2
					l-0.1,0.1l-0.1,0.1l-0.1,0.1l-0.2,0.1l-0.2,0l-0.2,0h-5.2l-0.2,0l-0.2,0l-0.2-0.1l-0.1-0.1l-0.1-0.1l-0.1-0.1l-0.1-0.2l0,0
					l0-0.2l0-0.2v-11.8l0-0.2l0-0.2l0.1-0.2l0.1-0.1l0.1-0.1l0.1-0.1l0.2-0.1l0.2,0l0.2,0h5.2L-321.4-156.1z M-325.8-154.2v9.8h3.3
					v-9.8H-325.8z"/>
			</g>
		</g>
		<path class="st9" d="M-356.9-181.2h17.8l18.2,24.3v30.3l-17.6-0.1c0-0.1,0-0.3,0-0.5c0-7.1-5.8-12.9-12.9-12.9
			s-12.9,5.8-12.9,12.9c0,0.1,0,0.2,0,0.3L-411-127v-0.1c0-7.1-5.8-12.9-12.9-12.9c-7.1,0-12.9,5.8-12.9,12.9l-17.3-0.1v-55.7
			c0-6.7,5.4-12.1,12.1-12.1h85.1L-356.9-181.2L-356.9-181.2z"/>
		<g transform="translate(15.756 53.594)">
			<ellipse class="st5" cx="-439.7" cy="-180" rx="15" ry="15.1"/>
			<ellipse class="st4" cx="-439.7" cy="-180" rx="7.8" ry="7.8"/>
		</g>
		<g transform="translate(87.981 53.594)">
			<ellipse class="st5" cx="-439.6" cy="-180" rx="15" ry="15.1"/>
			<ellipse class="st4" cx="-439.6" cy="-180" rx="7.8" ry="7.8"/>
		</g>
		<path class="st10" d="M-391.5-185.7c0.3,0,0.7,0,1,0c2,0,3.9,0.4,5.7,1.2c4.2,1.9,7.2,5.7,8,10.2c0.3,1.4,0.3,2.9,0.1,4.4
			c-0.4,3.1-1.8,6-4.1,8.3c-1.3,1.2-2.7,2.2-4.3,2.9c-1.7,0.7-3.5,1.1-5.4,1.1c-2.1,0-4.1-0.4-6-1.3v7.5c0,2.2-1.8,4-4,4
			c-2.2,0-4-1.8-4-4v-19.7c-0.1-2.4,0.4-4.8,1.5-7c-2-1.1-2.6-3.6-1.6-5.5c0.7-1.3,2.1-2.1,3.5-2.1L-391.5-185.7L-391.5-185.7z
			 M-390.6-177.9c-0.9,0-1.7,0.2-2.5,0.5c-0.5,0.2-1,0.6-1.5,0.9c-0.6,0.5-1.1,1.1-1.4,1.8c-0.3,0.5-0.5,1.1-0.6,1.7
			c-0.1,0.7-0.2,1.4-0.1,2.1c0.2,1.4,0.8,2.6,1.8,3.6c0.5,0.5,1.2,1,1.9,1.3c0.7,0.3,1.6,0.5,2.4,0.5c0.8,0,1.6-0.1,2.4-0.5
			c2-0.8,3.4-2.6,3.8-4.7c0.3-1.6-0.1-3.3-1.1-4.6c-0.6-0.9-1.4-1.5-2.4-2C-388.8-177.7-389.7-177.9-390.6-177.9L-390.6-177.9z"/>
		<path class="st6" d="M-442-182.4h18.1v20.3H-442V-182.4z"/>
		<path class="st5" d="M-423.8-183.4l0.2,0l0.2,0.1l0.1,0.1l0.1,0.1l0.1,0.1l0.1,0.2l0,0.2l0,0.2v20.3l0,0.2l0,0.2l-0.1,0.2
			l-0.1,0.1l-0.1,0.1l-0.1,0.1l-0.2,0.1l-0.2,0l-0.2,0H-442l-0.2,0l-0.2,0l-0.2-0.1l-0.1-0.1l-0.1-0.1l-0.1-0.1l-0.1-0.2l0-0.2
			l0-0.2v-20.3l0-0.2l0-0.2l0.1-0.2l0.1-0.1l0.1-0.1l0.1-0.1l0.2-0.1l0.2,0l0.2,0h18.1C-424-183.4-423.8-183.4-423.8-183.4z
			 M-441.1-181.4v18.4h16.1v-18.4H-441.1L-441.1-181.4z"/>
	</g>
	<path class="st11" d="M-412.8-149.2h-33"/>
	<path class="st12" d="M-421.8-160.2h-33"/>
	<path class="st11" d="M-412.8-173.2h-33"/>
</g>
<g>
	<g>
		<g>
			<path class="st13" d="M103.2,35.9c-0.7,0-1.3-0.4-1.3-0.8c0-4.6,11.3-14.5,20.2-14.8l0.1,0l0.1,0c2.1,0.1,3.6,0.6,4.5,1.5
				c2.7-0.8,5.7-1.6,8.7-2.3l0.7-0.2c0.7-0.2,1.4,0,1.7,0.4c0.3,0.4-0.1,0.9-0.7,1l-0.8,0.2c-2,0.5-5.5,1.4-8.9,2.4
				c0.3,1.9-1.2,4.1-3.1,5.2c-1.3,0.8-4,1.4-6,1.2c-1-0.1-1.7-0.5-2.1-1c-0.5-0.6-0.4-1.4,0-2.1c1-1.5,4.1-2.9,8.1-4.2
				c-0.5-0.4-1.2-0.6-2.3-0.6c-3.1,0.1-7.5,2.1-11.5,5.1c-3.7,2.9-6.3,6.1-6.3,8C104.5,35.5,103.9,35.9,103.2,35.9L103.2,35.9z
				 M118.7,28.2c0.4,0.2,2.8-0.1,3.9-0.7c1.2-0.7,2.2-2.1,2.3-3.2c-3,1-5.5,2.1-6.2,3.2C118.5,27.8,118.6,28.1,118.7,28.2z"/>
		</g>
		<path class="st14" d="M120.3,26.2c-0.7,0.4-1.3,0.8-1.5,1.2c-0.1,0.2-0.2,0.4-0.1,0.5c-0.4-0.9-1.2-1.4-1.8-1.7
			c0.4-0.4,0.9-0.8,1.5-1.1L120.3,26.2z"/>
		<path class="st15" d="M92,15.2L56.4,37.3c-1.1,0.7-2.9,0.7-4.1,0L35.5,26.8c-1.1-0.7-1.1-1.8,0-2.5L71,2.2c1.1-0.7,2.9-0.7,4.1,0
			L92,12.7C93.1,13.4,93.1,14.5,92,15.2L92,15.2z"/>
		<path class="st16" d="M92,15.2L56.4,37.3c-1.1,0.7-2.9,0.7-4.1,0L44,32.1c0.3,0,0.7,0,1,0c17.3,0,31.3-8.7,31.3-19.5
			c0-3.9-1.9-7.5-5-10.6c1.1-0.6,2.8-0.5,3.8,0.1L92,12.7C93.1,13.4,93.1,14.5,92,15.2z"/>
		<path class="st17" d="M64.9,6L47.5,16.8c-1.9,1.2-1.9,3.2,0,4.4l0.1,0c1.9,1.2,5.1,1.2,7,0L72,10.4C74,9.2,74,7.2,72,6L71.9,6
			C70,4.8,66.9,4.8,64.9,6L64.9,6z"/>
		<path class="st18" d="M64.7,15l3-1.8c1.9-1.2,1.9-3.2,0-4.4c0,0,0,0-0.1,0c-1.9-1.2-5.1-1.2-7,0l-3,1.8c-1.9,1.2-1.9,3.2,0,4.4
			c0,0,0.1,0,0.1,0C59.6,16.2,62.8,16.2,64.7,15L64.7,15z"/>
		<g>
			<path class="st19" d="M81.4,10.9l4.1,2.6l4.1-2.6c5.4-3.3,14-3.3,19.4,0c5.4,3.3,5.4,8.7,0,12.1L87.9,36.1
				c-1.3,0.8-3.4,0.8-4.7,0L62,23c-5.4-3.3-5.4-8.7,0-12.1C67.4,7.6,76.1,7.6,81.4,10.9L81.4,10.9z"/>
			<path class="st20" d="M113,17c0,2.2-1.3,4.4-4,6L87.9,36.1c-1.3,0.8-3.4,0.8-4.7,0L67,26.1c2.9,0.7,6.1,1,9.4,1
				c14.8,0,26.7-7.4,26.7-16.6c0-0.6-0.1-1.2-0.2-1.8c2.2,0.4,4.3,1.1,6.1,2.2C111.7,12.6,113,14.8,113,17z"/>
			<ellipse class="st21" cx="71.9" cy="12.6" rx="6.8" ry="4.2"/>
		</g>
		<g>
			<g>
				<path class="st15" d="M90.9,34.9c-5.7-1.5-10.2-6.2-9.2-9.7c0.6-2.2,3.1-3.4,7-3.6c0.2,0,0.5,0,0.7,0c2.4-3.7,9.8-3,14.7-2.5
					c0.8,0.1,1.5,0.2,2.2,0.2c0.6,0,1.3,0.1,1.9,0.1c-1.4-2.1-1.6-4.6,0.1-6.2c0.9-0.8,3.1-2.1,7.9-1.2c2.3,0.4,4,1.4,4.6,2.6
					c0.5,1.2,0,2.4-1.5,3.5c-1.8,1.2-4.2,2.1-6.8,2.6c1.3,1,2.9,1.8,4.6,2.7c2.9,1.5,6,3.1,7.5,5.4c1.5,2.2,0.8,4.7-1.6,6.1
					l-1.8-1.2c1.9-1.1,1.9-3,1-4.3c-1.3-2-4-3.3-6.8-4.8c-1.8-0.9-3.7-1.9-5.3-3.1c-0.2-0.1-0.4-0.3-0.6-0.5c-1.2,0.1-2.4,0.1-3.5,0
					c-0.7-0.1-1.5-0.1-2.3-0.2C98.2,20.2,93.8,20,92,22c3.2,0.5,6.2,1.8,7,3.2c0.5,0.8,0.2,1.6-0.8,2.1c-1.1,0.6-2.8,0.4-4.8-0.4
					c-1.8-0.7-4.1-2.1-4.4-3.7c-0.1,0-0.1,0-0.2,0c-2.6,0.1-4.2,0.8-4.6,2.2c-0.7,2.5,2.5,6.6,7.6,7.9L90.9,34.9z M91.8,23.6
					c0.3,0.4,0.7,0.8,1.3,1.1c1.4,0.9,3,1.3,3.5,1.3c0.1-0.1,0.1-0.1,0-0.3C96.2,25.1,94.2,24.1,91.8,23.6L91.8,23.6z M113.2,13.3
					c-1.2,0-2.2,0.3-2.8,0.8c-1.2,1.2-1,3.4,0.4,5.1c2.5-0.3,4.8-1.1,6.4-2.2c0.9-0.6,1.3-1.4,1-2c-0.3-0.7-1.3-1.2-2.8-1.5
					C114.6,13.4,113.9,13.3,113.2,13.3L113.2,13.3z"/>
			</g>
		</g>
		<path class="st16" d="M122.9,34.8l-1.8-1.2c1.9-1.1,1.9-3,1-4.3c-0.2-0.3-0.4-0.5-0.6-0.7l2.2-0.9c0.3,0.3,0.5,0.6,0.8,1
			C126,30.9,125.3,33.4,122.9,34.8L122.9,34.8z"/>
		<path class="st16" d="M118.8,24.3c-1.1,0.1-2.1,0.4-2.8,0.6c-0.2-0.1-0.4-0.2-0.6-0.3c-0.4-0.2-0.8-0.4-1.2-0.6l1.9-1.1
			c0.3,0.2,0.6,0.3,1,0.5C117.6,23.6,118.2,24,118.8,24.3L118.8,24.3z"/>
		<path class="st21" d="M138,30.6c-2.4,0-4.5,0.7-6,1.7c-1.5-1.1-3.7-1.7-6.1-1.7c-2.4,0-4.6,0.7-6.1,1.7c-1.5-1.1-3.7-1.7-6.1-1.7
			c-2.4,0-4.6,0.7-6.1,1.7c-1.5-1.1-3.7-1.7-6.1-1.7c-2.4,0-4.6,0.7-6.1,1.7c-1.5-1.1-3.7-1.7-6.1-1.7s-4.6,0.7-6.1,1.7
			c-1.5-1.1-3.7-1.7-6.1-1.7s-4.6,0.7-6.1,1.7c-1.5-1.1-3.7-1.7-6.1-1.7s-4.6,0.7-6.1,1.7c-1.5-1.1-3.7-1.7-6.1-1.7
			c-2.4,0-4.6,0.7-6.1,1.7c-1.5-1.1-3.7-1.7-6.1-1.7c-2.4,0-4.6,0.7-6.1,1.7c-1.5-1-3.6-1.7-6-1.7c-4.5,0-8.3,2.4-8.3,5.2V39
			c0,1.7,2.2,3,4.9,3h116.5c2.7,0,4.9-1.4,4.9-3v-3.2C146.3,33,142.5,30.6,138,30.6L138,30.6z"/>
		<path class="st22" d="M138,34.2c-1.7,0-3.3,0.4-4.6,1c-0.8,0.4-1.9,0.4-2.7,0c-1.3-0.6-3-0.9-4.7-0.9c-1.8,0-3.4,0.4-4.7,0.9
			c-0.8,0.4-1.9,0.4-2.7,0c-1.3-0.6-3-0.9-4.7-0.9c-1.8,0-3.4,0.4-4.7,0.9c-0.8,0.4-1.9,0.4-2.7,0c-1.3-0.6-3-0.9-4.7-0.9
			s-3.4,0.4-4.7,0.9c-0.8,0.4-1.9,0.4-2.7,0c-1.3-0.6-3-0.9-4.7-0.9s-3.4,0.4-4.7,0.9c-0.8,0.4-1.9,0.4-2.7,0
			c-1.3-0.6-3-0.9-4.7-0.9s-3.4,0.4-4.7,0.9c-0.8,0.4-1.9,0.4-2.7,0c-1.3-0.6-3-0.9-4.7-0.9c-1.8,0-3.4,0.4-4.7,0.9
			c-0.8,0.4-1.9,0.4-2.7,0c-1.3-0.6-3-0.9-4.7-0.9c-1.8,0-3.4,0.4-4.7,0.9c-0.8,0.4-1.9,0.4-2.7,0c-1.3-0.6-3-0.9-4.7-0.9
			c-1.8,0-3.4,0.4-4.7,0.9c-0.8,0.4-1.9,0.4-2.7,0c-1.3-0.6-2.9-0.9-4.6-1c-4.5,0-8.3,2.4-8.3,5.2v3.2c0,1.7,2.2,3,4.9,3h116.5
			c2.7,0,4.9-1.4,4.9-3v-3.2C146.2,36.6,142.5,34.2,138,34.2L138,34.2z"/>
		<path class="st21" d="M146.2,35.8V39c0,0.1,0,0.1,0,0.2c-0.2-2.7-3.8-5-8.2-4.9c-1.8,0-3.4,0.4-4.7,1c-0.8,0.4-1.8,0.4-2.6,0
			c-1.3-0.6-3-1-4.8-1c-1.8,0-3.5,0.4-4.8,1c-0.8,0.4-1.8,0.4-2.6,0c-1.3-0.6-3-1-4.8-1s-3.5,0.4-4.8,1c-0.8,0.4-1.8,0.4-2.6,0
			c-1.3-0.6-3-1-4.8-1c-1.8,0-3.5,0.4-4.8,1c-0.8,0.4-1.8,0.4-2.6,0c-1.3-0.6-3-1-4.8-1c-1.8,0-3.5,0.4-4.8,1
			c-0.8,0.4-1.8,0.4-2.6,0c-1.3-0.6-3-1-4.8-1c-1.8,0-3.5,0.4-4.8,1c-0.8,0.4-1.8,0.4-2.6,0c-1.3-0.6-3-1-4.8-1
			c-1.8,0-3.5,0.4-4.8,1c-0.8,0.4-1.8,0.4-2.6,0c-1.3-0.6-3-1-4.8-1s-3.5,0.4-4.8,1c-0.8,0.4-1.8,0.4-2.6,0c-1.3-0.6-3-1-4.8-1
			c-1.8,0-3.5,0.4-4.8,1c-0.8,0.4-1.8,0.4-2.6,0c-1.3-0.6-2.9-1-4.7-1c-4.4,0-8,2.2-8.2,4.9c0-0.1,0-0.1,0-0.2v-3.2
			c0-2.8,3.7-5.2,8.3-5.2c2.4,0,4.5,0.7,6,1.7c1.5-1.1,3.7-1.7,6.1-1.7c2.4,0,4.6,0.7,6.1,1.7c1.5-1.1,3.7-1.7,6.1-1.7
			s4.6,0.7,6.1,1.7c1.5-1.1,3.7-1.7,6.1-1.7c2.4,0,4.6,0.7,6.1,1.7c1.5-1.1,3.7-1.7,6.1-1.7c2.4,0,4.6,0.7,6.1,1.7
			c1.5-1.1,3.7-1.7,6.1-1.7c2.4,0,4.6,0.7,6.1,1.7c1.5-1.1,3.7-1.7,6.1-1.7c2.4,0,4.6,0.7,6.1,1.7c1.5-1.1,3.7-1.7,6.1-1.7
			s4.6,0.7,6.1,1.7c1.5-1.1,3.7-1.7,6.1-1.7c2.4,0,4.6,0.7,6.1,1.7c1.5-1,3.6-1.7,6-1.7C142.5,30.6,146.2,33,146.2,35.8L146.2,35.8z
			"/>
		<path class="st23" d="M20,37.6h126.2V81H20L20,37.6z"/>
		<path class="st24" d="M20,60.8h126.2v8.5H20L20,60.8z"/>
		<path class="st24" d="M146.2,37.6V81h-76c33.9-3.7,60-21.5,62-43.3H146.2z"/>
		<path class="st18" d="M146.2,57.5V81h-40.7C125.3,78.7,141.1,69.4,146.2,57.5z"/>
		<path class="st17" d="M20,37.6h126.2v9.3H20L20,37.6z"/>
		<path class="st17" d="M20,51.7h126.2V67H20L20,51.7z"/>
		<path class="st15" d="M146.2,46.9v-9.3h-14c-0.3,3.2-1.1,6.3-2.4,9.3H146.2z"/>
		<path class="st15" d="M146.2,51.7V67h-34.4c6.6-4.4,12-9.6,15.5-15.3H146.2z"/>
		<path class="st16" d="M146.2,57.5V67h-6.8C142.5,64.1,144.8,60.9,146.2,57.5z"/>
		<path class="st21" d="M20,56h126.2v7H20L20,56z"/>
		<path class="st22" d="M82.8,56H40.1c-2.7,0-4.9,1.4-4.9,3.1s2.2,3.1,4.9,3.1h42.7c2.7,0,4.9-1.4,4.9-3.1S85.5,56,82.8,56L82.8,56z
			"/>
		<path class="st25" d="M66.8,56H50C47.2,56,45,57.3,45,59s2.2,3.1,4.9,3.1h16.8c2.7,0,4.9-1.4,4.9-3.1S69.5,56,66.8,56L66.8,56z"/>
		<path class="st19" d="M146.2,56v7h-29c2.7-2.2,5-4.6,7.1-7H146.2z"/>
		<path class="st20" d="M146.2,57.5V63H143C144.3,61.2,145.4,59.4,146.2,57.5z"/>
		<path class="st13" d="M20,37.6h126.2v6.3H20L20,37.6z"/>
		<path class="st26" d="M97,37.6H34c-2.8,0-5.1,1.4-5.1,3.2c0,1.7,2.3,3.2,5.1,3.2H97c2.8,0,5.1-1.4,5.1-3.2
			C102,39,99.8,37.6,97,37.6z"/>
		<path class="st27" d="M74.9,37.6H46c-2.8,0-5.1,1.4-5.1,3.2c0,1.7,2.3,3.2,5.1,3.2h28.9c2.8,0,5.1-1.4,5.1-3.2
			C79.9,39,77.7,37.6,74.9,37.6z"/>
		<path class="st14" d="M146.2,43.9v-6.3h-14c-0.2,2.1-0.6,4.2-1.3,6.3H146.2z"/>
		<g>
			<path class="st13" d="M123.5,26.8c-0.3,0.3-0.6,0.5-0.9,0.7c-0.5,0.3-1.3,0.5-2,0.7c0.4,0.5,0.7,1,1,1.5c1.1-0.2,2.2-0.6,2.8-1
				c0.3-0.2,0.5-0.3,0.8-0.6C124.6,27.6,124.1,27.2,123.5,26.8L123.5,26.8z"/>
		</g>
		<g>
			<path class="st13" d="M114.2,24.7c1.3-0.8,2.6-1.4,3.9-1.9c-0.7-0.4-1.4-0.7-2-1.1c-1.3,0.5-2.6,1.2-3.9,2
				C112.9,24,113.6,24.4,114.2,24.7L114.2,24.7z"/>
		</g>
		<path class="st14" d="M126.6,26.7c-0.2-0.6-0.7-1.3-1.8-1.6c0.1-0.3,0.2-0.6,0.3-0.9l2.6-0.8C127.7,24.5,127.3,25.6,126.6,26.7
			L126.6,26.7z"/>
		<g>
			<path class="st16" d="M114.6,22.1c-1.1-0.3-2.6-0.5-3.8-0.1c-0.2-0.2-0.5-0.3-0.7-0.5c-0.2-0.1-0.4-0.3-0.6-0.5
				c0,0,1.8-0.1,2.9-0.3C113.1,21.2,113.8,21.6,114.6,22.1L114.6,22.1z"/>
			<path class="st16" d="M110.9,19.3c-1.1,0.2-2.7,0.2-2.7,0.2c-0.3-0.5-0.6-1-0.8-1.6c1,0.3,2,0.4,2.8,0.4
				C110.4,18.6,110.6,18.9,110.9,19.3z"/>
			<path class="st16" d="M92.1,24c-1.1-0.1-1.8,0.4-2.1,0.9c-0.5-0.5-0.9-1-1.1-1.6c1.2-0.1,2.9,0.3,2.9,0.3L92.1,24z"/>
			<path class="st16" d="M92.5,21.6c-0.2,0.1-0.3,0.3-0.5,0.4c0,0-1.7-0.3-2.7-0.3c0.4-0.7,1-1.2,1.7-1.6
				C91.2,20.6,91.5,21.2,92.5,21.6L92.5,21.6z"/>
		</g>
		<path class="st14" d="M126.8,21.8l-2.3,0.7c-0.1-0.1-0.3-0.2-0.5-0.3c0.7-0.5,0.7-1.1,0.6-1.6C125.5,20.9,126.3,21.3,126.8,21.8z"
			/>
	</g>
	<path class="st28" d="M151.2,84.2H15c-3,0-5.5-1.5-5.5-3.4c0-1.5,2-2.7,4.4-2.7h138.3c2.4,0,4.4,1.2,4.4,2.7
		C156.7,82.7,154.3,84.2,151.2,84.2z"/>
	<path class="st29" d="M96,78H26.9c-2.7,0-5,1.4-5,3.1s2.2,3.1,5,3.1H96c2.7,0,5-1.4,5-3.1C100.9,79.4,98.7,78,96,78z"/>
	<path class="st30" d="M59.9,78H38c-2.7,0-5,1.4-5,3.1s2.2,3.1,5,3.1h22c2.7,0,5-1.4,5-3.1C64.9,79.4,62.7,78,59.9,78z"/>
</g>
</svg>
