<?xml version="1.0" encoding="utf-8"?>
<!-- Generator: Adobe Illustrator 23.0.1, SVG Export Plug-In . SVG Version: 6.00 Build 0)  -->
<svg version="1.1" id="Layer_1" xmlns="http://www.w3.org/2000/svg" xmlns:xlink="http://www.w3.org/1999/xlink" x="0px" y="0px"
	 viewBox="0 0 20 20" style="enable-background:new 0 0 20 20;" xml:space="preserve">
<style type="text/css">
	.st0{display:none;fill:#1D1D1B;}
	.st1{fill:#FF0606;}
</style>
<path id="fb" class="st0" d="M0,0v20h10.6v-7.7H8V9.1h2.6V6.5c0-1.9,1.6-3.5,3.5-3.5h2.7v2.8h-1.9c-0.6,0-1.1,0.5-1.1,1.1v2.2h3
	l-0.4,3.2h-2.6V20H20V0H0z"/>
<path id="y" class="st0" d="M8,12.6V7l5.3,2.8L8,12.6z M19.7,6c0,0-0.2-1.4-0.8-2c-0.7-0.8-1.6-0.8-2-0.8C14.1,3,10,3,10,3l0,0
	c0,0-4.1,0-6.9,0.2c-0.4,0-1.2,0-2,0.8C0.5,4.6,0.3,6,0.3,6S0.1,7.6,0.1,9.2v1.5c0,1.6,0.2,3.2,0.2,3.2s0.2,1.4,0.8,2
	c0.7,0.8,1.7,0.8,2.2,0.9C4.9,17,10,17,10,17s4.1,0,6.9-0.2c0.4,0,1.2-0.1,2-0.8c0.6-0.6,0.8-2,0.8-2s0.2-1.6,0.2-3.2V9.2
	C19.9,7.6,19.7,6,19.7,6z"/>
<path id="lin" class="st1" d="M18.8,0.4H1.2c-0.4,0-0.8,0.4-0.8,0.8v17.6c0,0.4,0.4,0.8,0.8,0.8h17.6c0.4,0,0.8-0.4,0.8-0.8V1.2
	C19.6,0.7,19.3,0.4,18.8,0.4z M6.1,16.8H3.2V7.6h2.9C6.1,7.6,6.1,16.8,6.1,16.8z M4.7,6.3C3.8,6.3,3,5.6,3,4.6
	c0-0.9,0.7-1.7,1.7-1.7c0.9,0,1.7,0.7,1.7,1.7C6.3,5.6,5.6,6.3,4.7,6.3z M16.8,16.8h-2.9v-4.5c0-1.1,0-2.4-1.5-2.4s-1.7,1.2-1.7,2.4
	v4.5H7.9V7.6h2.7v1.3c0.4-0.7,1.3-1.5,2.7-1.5c2.9,0,3.4,1.9,3.4,4.4L16.8,16.8L16.8,16.8z"/>
</svg>
