<?xml version="1.0" encoding="utf-8"?>
<!-- Generator: Adobe Illustrator 23.0.1, SVG Export Plug-In . SVG Version: 6.00 Build 0)  -->
<svg version="1.1" id="Layer_1" xmlns="http://www.w3.org/2000/svg" xmlns:xlink="http://www.w3.org/1999/xlink" x="0px" y="0px"
	 viewBox="0 0 546 150" style="enable-background:new 0 0 546 150;" xml:space="preserve">
<style type="text/css">
	.st0{fill:#F5F5F5;}
	.st1{fill:#CFD8DC;}
	.st2{fill:#A0522D;}
	.st3{fill:#783E22;}
	.st4{fill:#EF314C;}
	.st5{fill:#BB193B;}
	.st6{fill:#DFC49C;}
	.st7{fill:#510505;}
</style>
<g>
	<g id="Page-1">
		<g transform="translate(0 -1)">
			<g id="Icons" transform="translate(1 2)">
				<path id="Shape" class="st0" d="M290.6,34c-0.8,0.1-1.7-0.1-2.5-0.4c0,0-2.7,4.4-8.2,1.8c0,0-1.8,3.6-7.3,3.6s-7.3-3.6-7.3-3.6
					c-5.5,2.7-8.2-1.8-8.2-1.8c-0.8,0.3-1.6,0.4-2.5,0.4c-4.6-0.5-3.9-9.2-3.9-9.2c1.8-8.9,10.9-13.4,16.8-15.4
					c0.5,2.4,1.2,4.7,2.1,7c2,1,4.1,1.6,6.2,1.9l0,0c4.4-1.1,7.3-2.1,8.8-4.8c0.1-0.3,0.3-0.6,0.4-0.8c4.3,2.6,8.4,6.5,9.5,12.1
					C294.5,24.7,295.1,33.4,290.6,34z"/>
				<path class="st1" d="M294.5,24.7c-1.2-5.6-5.2-9.5-9.5-12.1c-0.1,0.3-0.2,0.6-0.4,0.8c-0.1,0.2-0.2,0.3-0.3,0.5
					c3.5,2.5,6.5,6,7.5,10.7c0,0,0.6,7.6-3.1,9c0.6,0.2,1.3,0.3,1.9,0.2C295.1,33.4,294.5,24.7,294.5,24.7L294.5,24.7z"/>
				<path class="st2" d="M290.6,34c-0.5,3.7-1.9,11.2-5.4,17.1c-0.6,1-1.6,1.7-2.7,2.1c-3.2,0.9-6.6,1.3-9.9,1.3
					c-3.4,0-6.7-0.4-9.9-1.3c-1.1-0.3-2.1-1.1-2.7-2.1c-3.5-5.9-4.9-13.4-5.4-17.1c0.8,0.1,1.7-0.1,2.5-0.4c0,0,2.7,4.4,8.2,1.8
					c0,0,1.8,3.6,7.3,3.6s7.3-3.6,7.3-3.6c5.5,2.7,8.2-1.8,8.2-1.8C288.9,33.9,289.7,34,290.6,34z"/>
				<path class="st3" d="M288.1,33.6c-0.1,0.1-0.2,0.3-0.3,0.4l0,0c-0.5,3.7-1.9,11.2-5.4,17.1c-0.6,1-1.6,1.7-2.7,2.1
					c-2.8,0.8-5.7,1.2-8.6,1.3c0.5,0,0.9,0,1.4,0c3.4,0,6.7-0.4,9.9-1.3c1.1-0.3,2.1-1.1,2.7-2.1c3.5-5.9,4.9-13.4,5.4-17.1
					C289.7,34,288.9,33.9,288.1,33.6L288.1,33.6z"/>
				<path class="st4" d="M284.9,12.7c-0.1,0.3-0.2,0.6-0.4,0.8c-1.4,2.7-4.4,3.7-8.8,4.8l0,0c-2.2-0.3-4.3-1-6.2-1.9
					c-0.9-2.3-1.6-4.6-2.1-7c-0.3-1.6-0.1-3.3,0.6-4.7c1.4-2.6,4.3-3.9,6.7-2.5c2.8,1.6,2.6,5,2.6,5s2.8-2.1,5.6-0.5
					C285.2,7.7,285.8,10.3,284.9,12.7z"/>
				<path class="st5" d="M272.1,2c2.8,1.6,2.6,5,2.6,5c0.8-0.5,1.7-0.9,2.7-1c-0.2-1.6-1.1-3.1-2.6-3.9c-1.1-0.6-2.3-0.7-3.4-0.3
					C271.6,1.8,271.9,1.9,272.1,2L272.1,2z"/>
				<path class="st5" d="M283,6.5c-1.1-0.6-2.4-0.7-3.7-0.4c0.3,0.1,0.6,0.2,0.9,0.4c2.2,1.2,2.8,3.8,1.9,6.2
					c-0.1,0.3-0.2,0.6-0.4,0.8c-1.3,2.4-3.9,3.4-7.6,4.4c0.5,0.1,1,0.2,1.5,0.3l0,0c4.4-1.1,7.3-2.1,8.8-4.8
					c0.1-0.3,0.3-0.6,0.4-0.8C285.8,10.3,285.2,7.7,283,6.5L283,6.5z"/>
				<path class="st6" d="M280.8,18.8c-1.7-0.1-3.4-0.3-5-0.6"/>
				<path class="st6" d="M267.1,14.3c0.6,0.9,1.4,1.6,2.5,2.1"/>
				<g>
					<circle id="Oval" class="st4" cx="255.2" cy="26.1" r="1.8"/>
					<circle class="st4" cx="261.6" cy="28.9" r="1.8"/>
					<circle class="st4" cx="268.9" cy="29.8" r="1.8"/>
					<circle class="st4" cx="289.9" cy="26.1" r="1.8"/>
					<circle class="st4" cx="283.5" cy="28.9" r="1.8"/>
					<circle class="st4" cx="276.2" cy="29.8" r="1.8"/>
				</g>
			</g>
			<g id="Layer_11">
				<path d="M250.8,26.6v0.1c-0.1,0.7-0.5,7,2.6,9.4c0.4,0.3,0.9,0.5,1.4,0.7c0.6,4.1,2,11.1,5.4,16.8c0.7,1.2,1.9,2.1,3.2,2.5
					c3.3,0.9,6.7,1.4,10.2,1.3c3.4,0,6.9-0.4,10.2-1.3c1.3-0.4,2.5-1.3,3.2-2.5c3.4-5.7,4.8-12.7,5.4-16.8c0.5-0.1,0.9-0.4,1.4-0.7
					c3.1-2.4,2.7-8.7,2.6-9.4v-0.1c-1-4.9-4.1-9-9.4-12.3c0.8-2.5-0.2-5.2-2.5-6.6c-1.6-0.9-3.6-0.9-5.2-0.2c-0.3-1.8-1.4-3.4-3-4.3
					c-2.8-1.5-6.2-0.3-7.9,2.9c-0.7,1.4-1,3-0.8,4.6C261.7,12.8,252.6,17.5,250.8,26.6L250.8,26.6z M285.4,52.6
					c-0.5,0.8-1.3,1.4-2.2,1.7c-3.1,0.9-6.4,1.3-9.7,1.3c-3.3,0-6.5-0.4-9.7-1.3c-0.9-0.3-1.7-0.9-2.2-1.7
					c-3.1-5.2-4.5-11.8-5.1-15.7c0.4,0,0.7-0.1,1.1-0.2c2,2.4,5.4,3.2,8.2,1.8c0.9,1.2,3.2,3.3,7.6,3.3s6.7-2.2,7.6-3.3
					c2.8,1.3,6.2,0.6,8.2-1.8c0.4,0.1,0.7,0.2,1.1,0.2C289.9,40.9,288.5,47.4,285.4,52.6L285.4,52.6z M269.9,7
					c1.2-2.3,3.6-3.2,5.5-2.2c1.4,0.9,2.2,2.5,2.1,4.1c0,0.4,0.2,0.7,0.5,0.9s0.7,0.1,1-0.1c0,0,2.3-1.7,4.6-0.4
					c1.7,0.9,2.3,2.9,1.5,5.1c-0.1,0.2-0.2,0.5-0.3,0.7c-1.2,2.2-3.5,3.1-8,4.3c-1.9-0.3-3.7-0.9-5.4-1.7c-0.8-2.1-1.5-4.3-1.9-6.5
					C269.1,9.8,269.3,8.3,269.9,7L269.9,7z M267.8,12.5c0.2,0.9,0.5,1.9,0.8,3c-0.3-0.2-0.6-0.2-0.9-0.1c-0.5,0.2-0.7,0.7-0.5,1.2
					c0.2,0.4,2.3,4.3,14.5,5.1h0.1c0.5,0,0.9-0.4,0.9-0.9s-0.4-0.9-0.9-0.9c-0.2,0-0.4,0-0.6,0c2.1-0.6,3.9-2,5.1-3.9
					c4.6,3,7.4,6.6,8.2,10.9c0.1,1.7,0,6.3-1.9,7.7c-0.8,0.6-1.8,0.6-3.2,0.1c-0.4-0.1-0.9,0-1.1,0.4c-0.1,0.2-2.4,3.7-7,1.4
					c-0.4-0.2-1,0-1.2,0.4c-0.1,0.1-1.7,3.1-6.5,3.1s-6.4-2.9-6.5-3.1c-0.2-0.4-0.8-0.6-1.2-0.4c-4.6,2.3-6.9-1.3-7-1.4
					c-0.2-0.4-0.7-0.5-1.1-0.4c-1.4,0.5-2.4,0.5-3.2-0.1c-1.9-1.5-2.1-6-1.9-7.7C254.2,18.9,262.4,14.5,267.8,12.5L267.8,12.5z"/>
				<path d="M256.2,30.9c1.5,0,2.7-1.2,2.7-2.7s-1.2-2.7-2.7-2.7s-2.7,1.2-2.7,2.7C253.5,29.7,254.7,30.9,256.2,30.9z M256.2,27.2
					c0.5,0,0.9,0.4,0.9,0.9s-0.4,0.9-0.9,0.9s-0.9-0.4-0.9-0.9C255.3,27.6,255.7,27.2,256.2,27.2z"/>
				<path d="M262.6,33.6c1.5,0,2.7-1.2,2.7-2.7s-1.2-2.7-2.7-2.7s-2.7,1.2-2.7,2.7C259.9,32.4,261.1,33.6,262.6,33.6z M262.6,30
					c0.5,0,0.9,0.4,0.9,0.9s-0.4,0.9-0.9,0.9s-0.9-0.4-0.9-0.9S262.1,30,262.6,30z"/>
				<path d="M269.9,34.5c1.5,0,2.7-1.2,2.7-2.7s-1.2-2.7-2.7-2.7s-2.7,1.2-2.7,2.7C267.2,33.3,268.4,34.5,269.9,34.5z M269.9,30.9
					c0.5,0,0.9,0.4,0.9,0.9s-0.4,0.9-0.9,0.9s-0.9-0.4-0.9-0.9S269.4,30.9,269.9,30.9z"/>
				<path d="M290.9,30.9c1.5,0,2.7-1.2,2.7-2.7s-1.2-2.7-2.7-2.7s-2.7,1.2-2.7,2.7C288.2,29.7,289.4,30.9,290.9,30.9z M290.9,27.2
					c0.5,0,0.9,0.4,0.9,0.9s-0.4,0.9-0.9,0.9s-0.9-0.4-0.9-0.9S290.4,27.2,290.9,27.2z"/>
				<path d="M284.5,33.6c1.5,0,2.7-1.2,2.7-2.7s-1.2-2.7-2.7-2.7s-2.7,1.2-2.7,2.7C281.8,32.4,283,33.6,284.5,33.6z M284.5,30
					c0.5,0,0.9,0.4,0.9,0.9s-0.4,0.9-0.9,0.9s-0.9-0.4-0.9-0.9S284,30,284.5,30z"/>
				<path d="M277.2,34.5c1.5,0,2.7-1.2,2.7-2.7s-1.2-2.7-2.7-2.7s-2.7,1.2-2.7,2.7S275.7,34.5,277.2,34.5z M277.2,30.9
					c0.5,0,0.9,0.4,0.9,0.9s-0.4,0.9-0.9,0.9s-0.9-0.4-0.9-0.9S276.7,30.9,277.2,30.9z"/>
				<path d="M267.2,42.7c0-0.5-0.5-0.9-1-0.9s-0.9,0.5-0.9,1c0.1,1.7,0.6,6.2,2.9,9.6c0.2,0.3,0.5,0.4,0.8,0.4
					c0.2,0,0.4-0.1,0.5-0.2c0.4-0.3,0.5-0.8,0.3-1.3C267.8,48.3,267.3,44.3,267.2,42.7L267.2,42.7z"/>
				<path d="M280.9,41.8c-0.2,0-0.5,0.1-0.7,0.2c-0.2,0.2-0.3,0.4-0.3,0.6c-0.1,1.6-0.6,5.7-2.6,8.7c-0.3,0.4-0.2,1,0.3,1.3
					c0.1,0.1,0.3,0.2,0.5,0.2c0.3,0,0.6-0.2,0.8-0.4c2.2-3.4,2.7-7.8,2.9-9.6c0-0.2-0.1-0.5-0.2-0.7C281.4,42,281.2,41.8,280.9,41.8
					z"/>
			</g>
		</g>
	</g>
	<g>
		<path class="st7" d="M203.2,68.3c0,0.3,0,0.6-0.1,1s-0.2,0.8-0.3,1.2c-0.1,0.4-0.2,0.8-0.4,1.2c-0.2,0.4-0.3,0.6-0.5,0.9
			c-0.5,0.6-1.4,0.9-2.7,0.9c0-1.4-0.2-2.6-0.6-3.5c-0.2-0.4-0.5-0.8-1-1.1c-0.5-0.3-1-0.6-1.6-0.8c-0.6-0.2-1.2-0.4-1.8-0.5
			s-1.1-0.1-1.6-0.1c-1,0-2,0-2.9,0.1c-0.9,0-1.8,0.1-2.7,0.3c-0.9,0.1-1.8,0.3-2.7,0.6s-1.8,0.6-2.8,0.9c-0.7,0.3-1.5,0.7-2.3,1.1
			s-1.6,0.9-2.2,1.4c-0.7,0.5-1.3,1.1-1.8,1.8c-0.5,0.6-0.8,1.3-0.9,2.1c0,0.6,0.1,1.2,0.5,2c0.4,0.7,0.9,1.5,1.6,2.2
			c0.7,0.7,1.5,1.3,2.3,1.9c0.9,0.6,1.8,1,2.8,1.3c0.2,0.1,0.5,0.2,1.2,0.4c0.6,0.2,1.2,0.4,1.9,0.7c0.7,0.2,1.3,0.4,1.9,0.6
			c0.6,0.2,1,0.3,1.1,0.4c4.7,1.2,8.2,2.6,10.4,4.3c2.3,1.6,3.4,3.7,3.4,6c0,0.8-0.2,1.5-0.5,2.3s-0.8,1.5-1.3,2.2s-1.1,1.3-1.7,1.9
			s-1.2,1.1-1.7,1.5c-0.6,0.5-1.3,1-2.1,1.5s-1.6,1-2.5,1.5s-1.8,0.9-2.7,1.3s-1.9,0.8-2.8,1.1c-0.9,0.3-1.9,0.6-2.9,0.9
			s-2,0.5-3,0.7s-2,0.3-2.9,0.5c-0.9,0.1-1.7,0.2-2.5,0.2c-0.5,0-1.2-0.1-2.1-0.2c-0.9-0.2-1.7-0.4-2.5-0.7c-0.8-0.3-1.5-0.6-2.1-1
			s-0.9-0.8-0.9-1.2c0-0.3,0-0.6,0.1-1s0.2-0.8,0.3-1.2s0.3-0.7,0.5-0.9c0.2-0.3,0.4-0.4,0.6-0.4c0.4,0,0.8,0.1,1.3,0.2
			c0.4,0.1,1,0.3,1.6,0.5s1.3,0.3,2.2,0.5c0.8,0.1,1.9,0.2,3.1,0.2c1.2,0,2.5-0.1,3.9-0.4c1.3-0.3,2.6-0.6,3.9-1
			c1.3-0.4,2.5-0.9,3.7-1.5s2.2-1.1,3.2-1.7c0.4-0.3,0.9-0.6,1.4-1s1-0.8,1.5-1.3s0.8-0.9,1.1-1.5c0.3-0.5,0.5-1.1,0.5-1.6
			c0-0.8-0.6-1.5-1.7-2.3c-1.1-0.7-2.3-1.3-3.5-1.6c-1.2-0.4-2.3-0.7-3.2-0.9c-1.1-0.3-2.4-0.7-3.8-1.2c-1.4-0.5-3-1-4.7-1.7
			c-2.8-1.1-5.2-2.7-7.1-4.7c-1.9-2.1-2.9-4.6-2.9-7.5c0-1.4,0.4-2.7,1.3-3.9c0.9-1.3,2.1-2.4,3.6-3.5s3.2-2,5.1-2.9
			c1.9-0.8,3.9-1.5,5.9-2c0.4-0.1,0.9-0.2,1.5-0.3s1.2-0.2,1.8-0.3s1.2-0.1,1.8-0.2c0.6-0.1,1.1-0.1,1.5-0.1c0.5,0,1.1,0,1.9,0.1
			c0.8,0.1,1.5,0.2,2.3,0.3s1.6,0.3,2.3,0.5c0.7,0.2,1.3,0.4,1.7,0.7c1.1,0.6,1.9,1.2,2.5,2C202.9,66.8,203.2,67.6,203.2,68.3z"/>
		<path class="st7" d="M272.6,83c0.1,0,0.3,0,0.4,0c0.2,0,0.3-0.1,0.5-0.2s0.3-0.2,0.5-0.5c0.2-0.2,0.3-0.5,0.4-0.9
			c0.1-0.6,0.3-1.4,0.5-2.3s0.4-1.7,0.6-2.6s0.4-1.8,0.6-2.6c0.2-0.8,0.4-1.6,0.5-2.2c0.2-0.6,0.3-1.2,0.5-1.9s0.3-1.3,0.4-2
			s0.2-1.3,0.4-1.9c0.1-0.6,0.3-1.2,0.6-1.7c0.5-1.1,1.2-1.6,2.2-1.6c1.5,0,2.3,0.9,2.3,2.5c0,1.1-0.2,2.3-0.7,3.6
			c-1,3.1-1.7,5.7-2.2,7.8c-0.5,2-0.7,3.4-0.7,4.1c0,0.8,0.4,1.2,1.2,1.2c0.9,0,1.8,0,2.6,0c0.8,0,1.7-0.1,2.5-0.2s1.7-0.2,2.6-0.3
			s2-0.2,3.1-0.3c0.8-0.1,1.7-0.2,2.4-0.4c0.8-0.1,1.5-0.3,2.1-0.4s1.2-0.3,1.7-0.4s0.9-0.2,1.2-0.2c0.2,0,0.5-0.1,0.7-0.1
			s0.4,0,0.6,0s0.3,0.1,0.4,0.2s0.1,0.4,0.1,0.7c0,0.8-0.2,1.4-0.6,1.8s-0.9,0.8-1.4,1.1c-0.7,0.3-1.4,0.6-2.3,0.8
			c-0.8,0.2-1.7,0.5-2.6,0.7s-1.8,0.4-2.7,0.5s-1.7,0.2-2.5,0.3c-0.9,0.1-1.8,0.2-2.8,0.2c-1,0.1-1.9,0.2-2.8,0.3
			c-0.9,0.1-1.8,0.2-2.5,0.3c-0.8,0.1-1.4,0.3-1.9,0.5c-0.4,1.9-0.9,3.7-1.4,5.4c-0.5,1.7-0.9,3.4-1.2,5.1c-0.1,0.4-0.2,1-0.3,1.8
			c-0.1,0.8-0.3,1.6-0.4,2.5s-0.2,1.7-0.3,2.4c-0.1,0.8-0.1,1.3-0.1,1.6c0,0.8,0.1,1.5,0.4,1.9s0.6,0.8,0.9,1s0.6,0.5,0.9,0.7
			s0.4,0.6,0.4,1c0,0.3-0.1,0.6-0.4,0.8c-0.3,0.3-0.6,0.5-1,0.7s-0.8,0.4-1.3,0.5c-0.4,0.1-0.8,0.2-1.2,0.2c-0.6,0-1.1-0.2-1.6-0.5
			s-0.9-0.8-1.2-1.3c-0.3-0.5-0.6-1.1-0.8-1.8c-0.2-0.7-0.3-1.4-0.3-2.1c0-1,0.1-2,0.2-3.1c0.2-1.1,0.4-2.2,0.6-3.3
			c0.2-1.1,0.5-2.3,0.8-3.5s0.5-2.4,0.8-3.6c0.1-0.5,0.2-1,0.3-1.5s0.2-1,0.3-1.5c0.1-0.5,0.2-0.9,0.2-1.2c0.1-0.3,0.1-0.5,0.1-0.6
			c0-0.3-0.1-0.6-0.4-0.8c-0.2-0.2-0.5-0.3-0.9-0.3c-0.3,0-0.8,0-1.4,0.1s-1.3,0.1-2.1,0.2c-0.8,0.1-1.6,0.2-2.5,0.2
			s-1.8,0.2-2.8,0.2c-2.4,0.1-4.4,0.3-6,0.3s-3.1,0.1-4.4,0.1c-0.1,0.8-0.2,1.6-0.3,2.5s-0.2,1.8-0.4,2.7c-0.1,0.9-0.2,1.8-0.3,2.7
			s-0.2,1.7-0.3,2.4c-0.1,0.7-0.2,1.4-0.3,2.1s-0.2,1.4-0.3,2.1s-0.2,1.6-0.3,2.5s-0.3,1.9-0.4,3c-0.1,0.9-0.2,1.9-0.5,3
			c-0.2,1.1-0.5,2.1-0.9,3.2s-0.8,2.1-1.3,3.1s-1.1,1.9-1.8,2.7s-1.5,1.4-2.4,1.8c-0.9,0.5-1.9,0.7-3,0.7c-0.7,0-1.4-0.2-2.1-0.5
			s-1.2-0.7-1.7-1.2s-0.9-1-1.2-1.5s-0.4-1-0.4-1.4c0-0.5,0.1-0.9,0.3-1.1s0.4-0.3,0.8-0.3c0.2,0,0.4,0.1,0.6,0.2
			c0.2,0.1,0.5,0.3,0.7,0.5c0.5,0.4,0.9,0.6,1.4,0.9c0.5,0.2,1.1,0.3,1.8,0.3c0.5,0,1-0.2,1.5-0.5c0.5-0.4,0.9-0.8,1.3-1.5
			c0.4-0.6,0.7-1.4,1-2.3s0.6-1.9,0.8-3c0.3-1.5,0.6-2.9,0.8-4.3c0.2-1.3,0.5-2.6,0.6-3.9c0.2-1.3,0.4-2.5,0.5-3.7s0.3-2.4,0.4-3.6
			c0-0.5,0.1-1,0.1-1.6c0.1-0.6,0.1-1.2,0.1-1.8c0-0.6,0.1-1.2,0.1-1.8s0.1-1.1,0.1-1.6c0-0.2,0-0.4-0.2-0.6s-0.4-0.3-0.7-0.4
			c-0.8-0.1-1.6-0.1-2.4-0.1s-1.5-0.1-2.3-0.1c-0.7,0-1.5-0.1-2.3-0.1c-0.8-0.1-1.6-0.1-2.4-0.3c-0.2,0-0.6-0.1-1.2-0.2
			c-0.5-0.1-1.1-0.2-1.7-0.3c-0.6-0.1-1.1-0.3-1.6-0.4c-0.5-0.2-0.9-0.3-1-0.5c0.2,0.8,0.4,1.6,0.5,2.4s0.2,1.6,0.2,2.5
			c0,0.4,0,0.8-0.1,1.4c-0.1,0.5-0.2,1.1-0.4,1.6s-0.3,1.1-0.5,1.6s-0.4,0.9-0.6,1.3c-0.5,0.9-1.1,1.7-1.6,2.5
			c-0.6,0.7-1.2,1.4-1.9,2.1c-0.7,0.6-1.5,1.2-2.4,1.8c-0.9,0.5-1.9,1.1-3.1,1.6c-1.2,0.5-2.5,0.9-3.7,1.1c-1.3,0.2-2.6,0.3-3.9,0.3
			c-0.9,0-1.6-0.2-2.3-0.7s-1.2-1.2-1.7-2s-0.8-1.8-1-2.9s-0.4-2.2-0.4-3.5c0-0.3,0-0.7,0.1-1.2s0.1-0.9,0.2-1.4s0.2-0.9,0.3-1.4
			c0.1-0.4,0.2-0.8,0.3-1.1c0.3-0.9,0.7-1.9,1.2-3s1.2-2.3,1.9-3.4c0.7-1.2,1.5-2.3,2.4-3.5c0.9-1.1,1.8-2.1,2.8-3s2-1.6,3-2.1
			c1.1-0.5,2.1-0.8,3.2-0.8c0.4,0,0.6,0.1,0.9,0.2c0.2,0.1,0.4,0.2,0.6,0.4c0.2,0.2,0.3,0.3,0.4,0.5c0.1,0.2,0.3,0.4,0.4,0.6
			c0.1,0.1,0.2,0.2,0.3,0.2c0.2,0,0.4,0,0.6-0.1c0.2-0.1,0.5-0.1,0.8-0.1c0.4,0,0.8,0.1,1.2,0.4c0.4,0.2,0.8,0.5,1.2,0.9
			s0.9,0.7,1.4,1.1s1,0.8,1.6,1.1c0.6,0.3,1.2,0.6,2,0.9s1.6,0.5,2.4,0.7c0.8,0.2,1.7,0.4,2.5,0.5s1.6,0.2,2.2,0.2
			c0.8,0,1.5,0.1,2.1,0c0.6,0,1.2-0.1,1.8-0.2c0.2,0,0.5-0.1,0.7-0.3c0.2-0.1,0.4-0.3,0.5-0.5s0.3-0.4,0.4-0.6
			c0.1-0.2,0.1-0.4,0.2-0.5c0.1-0.4,0.2-1,0.3-1.8s0.3-1.6,0.5-2.5s0.3-1.7,0.5-2.5s0.3-1.4,0.4-1.8c0.2-1.1,0.6-2.3,1.1-3.5
			s1.1-2.4,1.7-3.4c0.4-0.7,0.9-1.4,1.5-2.1c0.6-0.7,1.2-1.4,2-2c0.7-0.6,1.5-1.1,2.3-1.5s1.6-0.6,2.4-0.6s1.5,0.2,2.2,0.5
			s1.3,0.7,1.8,1.2s0.9,1.1,1.2,1.8c0.3,0.7,0.5,1.4,0.5,2.2c0,2-0.8,4.1-2.3,6.4c-0.9,1.3-1.7,2-2.4,2h-0.1c0.4-1.5,0.6-3,0.6-4.6
			c0-0.3,0-0.8-0.1-1.4s-0.2-1.2-0.3-1.8c-0.1-0.6-0.4-1.1-0.6-1.6c-0.3-0.4-0.6-0.7-1.1-0.7s-1,0.2-1.4,0.5s-0.9,0.7-1.2,1.2
			c-0.4,0.5-0.7,1-1,1.5s-0.5,1-0.7,1.4c-0.4,1-0.8,2-1.2,3.2s-0.7,2.3-0.9,3.5c-0.3,1.2-0.5,2.4-0.6,3.7s-0.3,2.5-0.3,3.7
			c0,0.2,0.2,0.4,0.5,0.5c0.4,0.1,0.8,0.2,1.4,0.3c0.5,0.1,1.1,0.1,1.7,0.1s1.2,0,1.7,0c2.2,0,4.5-0.1,6.9-0.3
			C267.9,83.3,270.3,83.1,272.6,83z M228.9,85.3c-0.1-0.4-0.4-0.8-0.7-1.2c-0.4-0.4-0.8-0.7-1.2-1.1s-1-0.6-1.5-0.8
			c-0.5-0.2-1-0.3-1.5-0.3c-0.4,0-0.7,0.1-1.1,0.2c-0.4,0.1-0.7,0.3-1,0.5s-0.7,0.4-1,0.6s-0.6,0.5-0.9,0.7
			c-0.8,0.7-1.6,1.6-2.3,2.9c-0.7,1.2-1.4,2.6-1.9,4s-1,2.8-1.3,4.2c-0.3,1.4-0.5,2.6-0.5,3.7c0,0.5,0.1,0.9,0.2,1.3
			c0.2,0.4,0.4,0.8,0.7,1.1c0.3,0.3,0.6,0.6,1,0.8c0.4,0.2,0.8,0.3,1.3,0.3c1.2,0,2.4-0.2,3.5-0.7c1.1-0.4,2-1.1,2.9-1.8
			c0.9-0.8,1.6-1.7,2.3-2.8c0.7-1.1,1.2-2.2,1.7-3.5s0.8-2.6,1-4C228.7,88.2,228.9,86.8,228.9,85.3z"/>
		<path class="st7" d="M325.2,87.6c0,0.4-0.2,1-0.6,1.8c-0.4,0.7-1,1.6-1.6,2.5c-0.7,0.9-1.5,2-2.4,3s-1.9,2.2-2.9,3.2
			c-1.2,1.2-2.4,2.4-3.7,3.6c-1.3,1.1-2.7,2.3-4.1,3.3c-2.9,2.2-5.5,3.2-7.8,3.2c-2.5,0-4.5-0.8-5.8-2.5c-1.4-1.7-2.3-3.8-2.8-6.2
			c-0.5-2.4-0.7-4.8-0.7-7.4c0-1.1,0.1-2.7,0.4-4.9c0.1-1.1,0.2-2.1,0.4-2.9c0.1-0.8,0.3-1.5,0.4-2c0.3-1,0.9-1.8,1.8-2.5
			c1-0.8,1.9-1.2,3-1.2c0.6,0,0.8,0.5,0.8,1.6c0,0.7-0.1,1.5-0.2,2.4s-0.3,1.8-0.4,2.6c-0.3,1.6-0.5,3.1-0.6,4.4s-0.2,2.4-0.2,3.4
			c0,2.1,0.3,4.2,0.9,6.3c0.6,2.2,1.6,3.3,3.1,3.3s3.3-0.6,5.3-1.7c1-0.6,2-1.2,3-1.9c1-0.7,2-1.5,3-2.4s2-1.7,3-2.6
			s1.9-1.8,2.8-2.7c0.9-0.9,1.7-1.8,2.5-2.6c0.7-0.8,1.4-1.6,1.9-2.2c0,0,0.1-0.1,0.1-0.2c0.1-0.1,0.1-0.2,0.2-0.3
			c0.1-0.1,0.1-0.2,0.2-0.2c0.1-0.1,0.1-0.1,0.2-0.1c0.3,0,0.5,0.2,0.7,0.7C325.1,86.9,325.2,87.3,325.2,87.6z M304.8,62.3
			c0,1.3-0.4,2.5-1.1,3.4c-0.7,1-1.7,1.4-3,1.4c-0.8,0-1.8-0.1-2.8-0.4c-1-0.2-1.5-0.7-1.5-1.2c0-1,0.3-2,0.9-2.9s1.4-1.7,2.3-2.3
			c0.7-0.4,1.2-0.6,1.4-0.6c1.2,0,2.1,0.2,2.7,0.5C304.5,60.6,304.8,61.3,304.8,62.3z"/>
		<path class="st7" d="M359.2,86.3c0,0.3-0.2,0.9-0.7,1.6c-1.1,1.6-2.3,3.1-3.6,4.7c-1.3,1.6-2.8,3-4.3,4.4s-3.1,2.7-4.7,3.9
			c-1.6,1.2-3.3,2.3-4.9,3.1c-1.7,0.9-3.3,1.6-5,2s-3.2,0.7-4.8,0.7c-3.3,0-5.9-1-7.7-2.9c-1.8-1.9-2.8-4.8-2.8-8.7
			c0-3.3,0.5-6.4,1.5-9.5s2.7-6,5.1-8.9c0.5-0.5,1-1,1.5-1.4c0.6-0.5,1.2-0.9,1.8-1.2c0.6-0.4,1.3-0.6,2-0.8c0.7-0.2,1.4-0.3,2-0.4
			c0.2,0,0.4,0,0.7,0.1s0.6,0.1,0.9,0.2s0.7,0.2,1,0.4c0.3,0.2,0.6,0.3,0.7,0.6c0.6,0.7,1,1.3,1.4,2.1c0.3,0.7,0.5,1.5,0.6,2.3
			c0,1-0.1,1.9-0.3,2.8s-0.7,1.9-1.3,2.8c-0.6,1-1.4,2-2.4,3s-2.2,2.1-3.6,3.3c-0.9,0.7-1.9,1.6-3,2.5s-2.4,1.8-3.9,2.8
			c0,2,0.6,3.5,1.8,4.6c1.2,1,2.9,1.6,5,1.6c1.2,0,2.4-0.2,3.6-0.5s2.4-0.7,3.5-1.2c1.2-0.5,2.3-1.1,3.4-1.7c1.1-0.7,2.1-1.3,3.1-2
			c1.8-1.3,3.4-2.6,4.8-3.8s2.8-2.6,4.3-4l1.7-1.7c1-0.9,1.8-1.3,2.2-1.3C359,85.8,359.2,85.9,359.2,86.3z M335.4,80.2
			c0-0.3-0.1-0.6-0.1-0.9c-0.1-0.3-0.2-0.6-0.3-0.8c-0.1-0.2-0.3-0.4-0.5-0.5s-0.4-0.2-0.7-0.2c-1.1,0.1-2.2,0.7-3.3,2
			c-1.1,1.3-2.1,3-3.1,5.1c-0.2,0.5-0.4,1-0.6,1.5c-0.2,0.6-0.3,1.2-0.5,1.7c-0.2,0.6-0.3,1.2-0.4,1.8c-0.1,0.6-0.2,1.1-0.3,1.6
			c1.1-0.8,2.1-1.6,3-2.2c0.9-0.7,1.8-1.4,2.5-2.1c0.5-0.5,1-0.9,1.5-1.5c0.5-0.5,1-1.1,1.4-1.7s0.8-1.2,1-1.8
			C335.3,81.4,335.4,80.8,335.4,80.2z"/>
		<path class="st7" d="M386.8,85.3c0,0.3-0.1,0.7-0.3,1.1c-0.2,0.4-0.4,0.8-0.7,1.3c-0.3,0.4-0.7,0.9-1.1,1.3s-0.8,0.9-1.2,1.3
			c-0.3,0.4-0.6,0.7-1,1.1s-0.8,0.8-1.2,1.2c-0.4,0.4-1,1-1.6,1.6s-1.3,1.3-2.1,2.1c-0.7,0.7-1.5,1.4-2.4,2.2
			c-0.9,0.8-1.8,1.5-2.7,2.3s-1.8,1.5-2.6,2.1c-0.9,0.7-1.6,1.3-2.2,1.8c-1.5,1.2-2.9,2.4-4.3,3.5c-1.3,1.1-2.7,2.1-4,2.9
			c-2.6,1.7-4.6,2.6-6.2,2.6c-0.5,0-1.1-0.1-1.8-0.4c-0.7-0.3-1.1-0.6-1.1-1.1c0-1.3,0.5-2.4,1.5-3.2c1-0.7,2.5-1.5,4.7-2.4
			c2.1-0.8,3.6-1.6,4.7-2.4s1.6-1.9,1.6-3.2c0-0.7-0.7-2.1-2.1-4.2c-0.7-1.1-1.3-2-1.9-2.9s-1-1.7-1.4-2.4c-0.8-1.5-1.2-3-1.2-4.6
			c0-1.4,0.3-2.8,0.8-4.4c0.2-0.9,0.6-1.7,1.2-2.6c0.5-0.9,1.1-1.7,1.8-2.4c0.6-0.7,1.3-1.2,2-1.7c0.7-0.4,1.2-0.6,1.7-0.6
			c1.8,0,2.7,1.1,2.7,3.2c0,0.8-0.3,1.6-0.9,2.4c-0.3,0.4-0.6,0.8-1.1,1.2c-0.4,0.4-0.9,0.8-1.4,1.3c-0.5,0.4-1,0.8-1.3,1.2
			c-0.4,0.3-0.7,0.6-0.9,0.8c0,1.1,0.3,2.3,1,3.8c0.4,0.7,0.8,1.5,1.2,2.3c0.5,0.8,1,1.7,1.6,2.7s1.1,1.8,1.5,2.6
			c0.4,0.8,0.7,1.3,0.9,1.7c0,0.1,0.1,0.1,0.3,0.1c0.3,0,0.8-0.2,1.5-0.6s1.6-1,2.5-1.7s2.1-1.5,3.2-2.5c1.2-0.9,2.3-1.9,3.5-3
			s2.2-2,3-2.8s1.5-1.6,2.2-2.3c0.7-0.7,1.2-1.2,1.6-1.6c0.3-0.4,0.5-0.6,0.6-0.6c0.2,0,0.3,0.1,0.5,0.2c0.1,0.1,0.3,0.3,0.4,0.5
			s0.2,0.4,0.3,0.6C386.7,84.9,386.8,85.1,386.8,85.3z"/>
	</g>
	<g>
		<path class="st4" d="M187.8,123.4l2.7-1l-1.2,4.8h3.5l-0.3,1.2H189l-1.5,5.7c-0.5,1.7-0.7,2.9-0.7,3.6c0,0.3,0.1,0.5,0.2,0.7
			c0.1,0.1,0.3,0.2,0.5,0.2c0.4,0,0.9-0.2,1.6-0.6c1-0.6,1.9-1.2,2.7-1.9l0.6,0.8c-2.5,1.9-4.2,3-5,3.4s-1.5,0.6-2,0.6
			c-0.4,0-0.8-0.2-1-0.5s-0.4-0.8-0.4-1.5c0-0.8,0.2-2.1,0.6-3.7l1.7-6.8h-2.8l0.3-1.2h2.8L187.8,123.4z"/>
		<path class="st4" d="M205.8,125.7l1.1-0.2l-1.3,4.3c-0.5,1.7-1,3.7-1.4,5.9c-0.3,1.2-0.4,2-0.4,2.4s0.1,0.5,0.4,0.5
			c0.2,0,0.5-0.1,0.9-0.4c0.7-0.4,1.4-0.9,2-1.6l0.5,0.7c-1.3,1.2-2.1,1.9-2.5,2.1c-0.7,0.5-1.4,0.9-2.1,1.1
			c-0.4,0.2-0.9,0.2-1.3,0.2c-0.3,0-0.5-0.1-0.7-0.2c-0.1-0.1-0.2-0.3-0.2-0.6c0-0.2,0-0.4,0.1-0.7l0.7-2.3c-1,1.2-2.1,2.2-3.5,3
			c-0.8,0.5-1.6,0.8-2.3,0.8s-1.2-0.2-1.5-0.7c-0.5-0.6-0.7-1.4-0.7-2.5c0-1.2,0.3-2.5,1-4c0.6-1.5,1.5-2.8,2.6-4s2.2-2.1,3.4-2.7
			c0.9-0.4,2.1-0.6,3.5-0.6c0.4,0,0.7,0,1.1,0.1L205.8,125.7z M203.7,128.3c-0.6-0.1-1.1-0.2-1.5-0.2c-1,0-1.9,0.3-2.7,0.8
			c-0.8,0.6-1.5,1.6-2.1,3c-0.7,1.5-1,2.9-1,4.4c0,0.8,0.1,1.3,0.4,1.7s0.6,0.5,1,0.5c0.8,0,1.6-0.4,2.5-1.3c0.9-0.8,1.6-2.1,2-3.7
			L203.7,128.3z"/>
		<path class="st4" d="M211.5,140.3H209l2.2-9.3c1.1-4.6,1.8-7.4,2.1-8.5s0.7-1.9,1.2-2.6s1.1-1.3,1.8-1.9c0.7-0.5,1.5-1,2.3-1.3
			s1.5-0.4,2.2-0.4c0.6,0,1,0.1,1.3,0.3c0.3,0.2,0.4,0.5,0.4,0.9c0,0.3-0.1,0.6-0.4,0.8c-0.3,0.2-0.6,0.3-1,0.3
			c-0.5,0-1.3-0.1-2.3-0.3c-0.3-0.1-0.6-0.1-0.9-0.1c-0.4,0-0.7,0.1-1,0.4s-0.6,0.7-0.8,1.3c-0.2,0.6-0.6,2-1,4l-1.2,5.4
			c1.1-1.2,2.2-2.2,3.4-2.9c0.9-0.5,1.7-0.8,2.5-0.8c0.6,0,1,0.2,1.4,0.6s0.6,1,0.6,1.6c0,1.2-0.6,2.3-1.9,3.3
			c-1.3,1-3.2,1.5-5.8,1.5c0.9,0.4,1.6,0.8,2.1,1.3s1,1.1,1.5,1.9c0.5,0.8,1.2,2.2,2,4.1c0.9,2.3,1.8,3.8,2.6,4.5
			c0.8,0.8,1.7,1.1,2.6,1.1c0.6,0,1-0.1,1.4-0.4c0.4-0.2,0.5-0.5,0.5-0.7s-0.1-0.4-0.2-0.6c-0.1-0.3-0.2-0.5-0.2-0.7
			c0-0.3,0.1-0.5,0.3-0.7s0.4-0.3,0.7-0.3s0.6,0.1,0.8,0.4c0.2,0.3,0.3,0.6,0.3,1c0,0.8-0.4,1.5-1.1,2.2s-1.7,1-2.9,1
			s-2.3-0.3-3.3-0.9c-1-0.6-1.9-1.6-2.7-3c-0.5-0.8-1.3-2.6-2.6-5.4c-0.6-1.3-1.1-2.3-1.5-3c-0.4-0.5-0.8-1-1.4-1.6L211.5,140.3z
			 M213.3,132.2c1.5,0,2.8-0.1,3.7-0.4c0.9-0.3,1.6-0.7,2-1.2s0.6-1.1,0.6-1.7c0-0.4-0.1-0.8-0.3-1c-0.2-0.3-0.5-0.4-0.8-0.4
			c-1.1,0-2.7,1.2-4.9,3.6L213.3,132.2z"/>
		<path class="st4" d="M233.1,136l0.6,0.7c-2.8,2.6-5.2,4-7.2,4c-0.8,0-1.4-0.3-1.8-0.8s-0.6-1.4-0.6-2.6c0-2.4,0.7-4.8,2.2-7.3
			c1.7-2.7,3.6-4.1,5.9-4.1c0.8,0,1.4,0.2,1.8,0.6c0.4,0.4,0.6,1,0.6,1.7s-0.3,1.5-0.8,2.2s-1.4,1.5-2.7,2.2c-0.7,0.4-2.1,1-4.2,2
			c-0.1,0.6-0.2,1.2-0.2,1.8c0,0.8,0.1,1.4,0.4,1.7c0.3,0.3,0.6,0.5,1.1,0.5s1-0.1,1.5-0.4C230.6,137.8,231.7,137.1,233.1,136z
			 M227.2,133.6c1.8-0.8,3.2-1.7,4.1-2.6c0.6-0.7,0.9-1.3,0.9-2c0-0.5-0.1-0.9-0.4-1.2c-0.3-0.3-0.6-0.4-1-0.4s-0.8,0.2-1.2,0.5
			c-0.5,0.4-1,1.1-1.3,1.9C227.7,131,227.4,132.3,227.2,133.6z"/>
		<path class="st4" d="M255.3,125.7l1.1-0.2l-1.3,4.3c-0.5,1.7-1,3.7-1.4,5.9c-0.3,1.2-0.4,2-0.4,2.4s0.1,0.5,0.4,0.5
			c0.2,0,0.5-0.1,0.9-0.4c0.7-0.4,1.4-0.9,2-1.6l0.5,0.7c-1.3,1.2-2.1,1.9-2.5,2.1c-0.7,0.5-1.4,0.9-2.1,1.1
			c-0.4,0.2-0.9,0.2-1.3,0.2c-0.3,0-0.5-0.1-0.7-0.2c-0.1-0.1-0.2-0.3-0.2-0.6c0-0.2,0-0.4,0.1-0.7l0.7-2.3c-1,1.2-2.1,2.2-3.5,3
			c-0.8,0.5-1.6,0.8-2.3,0.8s-1.2-0.2-1.5-0.7c-0.5-0.6-0.7-1.4-0.7-2.5c0-1.2,0.3-2.5,1-4c0.6-1.5,1.5-2.8,2.6-4s2.2-2.1,3.4-2.7
			c0.9-0.4,2.1-0.6,3.5-0.6c0.4,0,0.7,0,1.1,0.1L255.3,125.7z M253.2,128.3c-0.6-0.1-1.1-0.2-1.5-0.2c-1,0-1.9,0.3-2.7,0.8
			c-0.8,0.6-1.5,1.6-2.1,3c-0.7,1.5-1,2.9-1,4.4c0,0.8,0.1,1.3,0.4,1.7s0.6,0.5,1,0.5c0.8,0,1.6-0.4,2.5-1.3c0.9-0.8,1.6-2.1,2-3.7
			L253.2,128.3z"/>
		<path class="st4" d="M273.5,126c1,0,1.8,0.2,2.3,0.6s0.8,0.8,0.8,1.4c0,0.3-0.1,0.6-0.3,0.8c-0.2,0.2-0.5,0.3-0.8,0.3
			c-0.2,0-0.4,0-0.6-0.1s-0.4-0.3-0.7-0.7c-0.6-0.7-1.1-1.1-1.7-1.1c-0.5,0-0.9,0.2-1.2,0.5c-0.4,0.4-0.5,0.8-0.5,1.3
			s0.1,0.9,0.3,1.4s0.8,1.1,1.7,2.1c1.3,1.3,1.9,2.6,1.9,3.8s-0.5,2.3-1.5,3.2s-2.3,1.4-4,1.4c-1.4,0-2.4-0.3-3-0.8
			c-0.7-0.6-1-1.2-1-2c0-0.4,0.1-0.7,0.4-1s0.6-0.4,0.9-0.4s0.6,0.1,0.8,0.3c0.2,0.2,0.3,0.5,0.3,0.7c0,0.1,0,0.3,0,0.4
			c0,0.1,0,0.3,0,0.4c0,0.4,0.2,0.7,0.5,1s0.7,0.4,1.3,0.4c0.6,0,1.1-0.1,1.6-0.3s0.8-0.5,1.1-1c0.3-0.4,0.4-0.8,0.4-1.3
			c0-0.4-0.1-0.8-0.4-1.2c-0.2-0.4-0.8-1.1-1.6-2c-1.2-1.3-1.8-2.6-1.8-3.8c0-1.1,0.4-2.1,1.3-2.9C271,126.4,272.1,126,273.5,126z"
			/>
		<path class="st4" d="M285.6,126c1.1,0,2,0.4,2.8,1.3c0.8,0.9,1.1,2.1,1.1,3.7c0,2.5-0.9,4.8-2.7,6.8c-1.8,2-3.6,3-5.6,3
			c-1.2,0-2.2-0.4-2.9-1.2c-0.7-0.8-1.1-1.9-1.1-3.3c0-2.4,0.7-4.6,2-6.6C280.9,127.2,283.1,126,285.6,126z M284.2,127.3
			c-1,0-1.9,0.7-2.8,2.1c-0.9,1.4-1.4,3.3-1.4,5.7c0,1.5,0.3,2.6,0.8,3.5c0.4,0.6,1,0.9,1.6,0.9c1,0,1.8-0.6,2.6-1.8
			c1-1.5,1.5-3.4,1.5-5.7c0-1.7-0.2-2.9-0.7-3.6S284.9,127.3,284.2,127.3z"/>
		<path class="st4" d="M291.7,127.1h4.1c0.7-2.8,1.4-5,2.3-6.3c0.9-1.4,2-2.5,3.4-3.3s2.7-1.2,3.9-1.2c0.7,0,1.2,0.1,1.6,0.4
			s0.5,0.6,0.5,1c0,0.3-0.1,0.6-0.4,0.9c-0.2,0.2-0.6,0.3-0.9,0.3c-0.4,0-1.1-0.1-2.3-0.4c-0.5-0.1-1-0.2-1.3-0.2
			c-0.8,0-1.4,0.5-2,1.4s-1.1,2.2-1.5,3.8l-0.9,3.6h4.5l-0.3,1.2H298l-2.7,10.9c-0.8,3.3-2.2,5.8-4,7.5s-3.8,2.6-5.9,2.6
			c-0.7,0-1.3-0.1-1.6-0.4s-0.6-0.6-0.6-1s0.1-0.6,0.4-0.8s0.6-0.3,1.1-0.3c0.2,0,0.6,0,1.1,0.1c0.8,0.1,1.6,0.2,2.3,0.2
			c1.1,0,1.9-0.3,2.5-0.8s1-1.8,1.5-3.9l3.5-13.9h-4.1L291.7,127.1z"/>
		<path class="st4" d="M307.1,123.4l2.7-1l-1.2,4.8h3.5l-0.3,1.2h-3.5l-1.5,5.7c-0.5,1.7-0.7,2.9-0.7,3.6c0,0.3,0.1,0.5,0.2,0.7
			c0.1,0.1,0.3,0.2,0.5,0.2c0.4,0,0.9-0.2,1.6-0.6c1-0.6,1.9-1.2,2.7-1.9l0.6,0.8c-2.5,1.9-4.2,3-5,3.4s-1.5,0.6-2,0.6
			c-0.4,0-0.8-0.2-1-0.5s-0.4-0.8-0.4-1.5c0-0.8,0.2-2.1,0.6-3.7l1.7-6.8H303l0.3-1.2h2.8L307.1,123.4z"/>
		<path class="st4" d="M326.3,129c0.9-1,1.8-1.8,2.7-2.2c0.9-0.5,1.7-0.7,2.4-0.7c0.8,0,1.4,0.3,1.9,1c0.5,0.6,0.7,1.6,0.7,2.9
			c0,1.9-0.4,3.7-1.3,5.5s-2,3.1-3.2,4.1c-1.3,0.9-2.5,1.4-3.8,1.4c-1,0-1.9-0.3-2.5-0.9c-0.6-0.6-0.9-1.4-0.9-2.4
			c0-0.8,0.2-1.9,0.5-3.3l2-9c0.5-2.2,1.1-3.9,1.8-5c0.7-1.2,1.7-2.1,2.9-2.8c1.2-0.7,2.3-1,3.4-1c0.6,0,1.1,0.1,1.4,0.3
			c0.3,0.2,0.5,0.5,0.5,0.9c0,0.3-0.1,0.6-0.4,0.9c-0.3,0.2-0.7,0.3-1.2,0.3c-0.4,0-1-0.1-1.9-0.3c-0.4-0.1-0.8-0.1-1.1-0.1
			c-0.6,0-1,0.3-1.4,0.9c-0.3,0.5-0.6,1.7-1.1,3.6L326.3,129z M329.7,127.9c-0.6,0-1.2,0.3-2,1s-1.5,1.9-2.2,3.6c-0.7,1.7-1,3.4-1,5
			c0,0.6,0.2,1.1,0.6,1.5s0.8,0.6,1.4,0.6c1.3,0,2.4-1,3.4-3s1.5-4,1.5-6c0-0.9-0.2-1.6-0.6-2.2
			C330.5,128.1,330.1,127.9,329.7,127.9z"/>
		<path class="st4" d="M336.3,129.9l-0.7-0.6c1.1-1.2,2.2-2.1,3.1-2.7s1.7-0.8,2.4-0.8c0.4,0,0.6,0.1,0.8,0.2
			c0.2,0.2,0.3,0.4,0.3,0.6c0,0.3-0.4,1.7-1.1,4.2c-1.2,4-1.8,6.5-1.8,7.3c0,0.2,0,0.3,0.1,0.4c0.1,0.1,0.2,0.2,0.3,0.2
			c0.4,0,1.3-0.7,2.8-2.1l0.7,0.6c-1.6,1.5-2.7,2.4-3.4,2.8c-0.7,0.4-1.3,0.6-1.8,0.6c-0.4,0-0.7-0.1-0.9-0.4
			c-0.2-0.3-0.3-0.6-0.3-1c0-1.4,0.9-4.9,2.6-10.4c0.1-0.3,0.1-0.5,0.1-0.7s-0.1-0.3-0.3-0.3c-0.2,0-0.5,0.1-0.8,0.3
			C338,128.4,337.3,129,336.3,129.9z M343,118.7c0.4,0,0.6,0.1,0.9,0.3c0.2,0.2,0.3,0.5,0.3,0.9c0,0.5-0.2,0.9-0.5,1.3
			s-0.7,0.6-1.2,0.6c-0.3,0-0.6-0.1-0.9-0.4c-0.2-0.2-0.3-0.6-0.3-0.9c0-0.5,0.2-0.9,0.5-1.3C342.2,118.8,342.6,118.7,343,118.7z"/>
		<path class="st4" d="M348.9,123.4l2.7-1l-1.2,4.8h3.5l-0.3,1.2h-3.5l-1.5,5.7c-0.5,1.7-0.7,2.9-0.7,3.6c0,0.3,0.1,0.5,0.2,0.7
			c0.1,0.1,0.3,0.2,0.5,0.2c0.4,0,0.9-0.2,1.6-0.6c1-0.6,1.9-1.2,2.7-1.9l0.6,0.8c-2.5,1.9-4.2,3-5,3.4s-1.5,0.6-2,0.6
			c-0.4,0-0.8-0.2-1-0.5s-0.4-0.8-0.4-1.5c0-0.8,0.2-2.1,0.6-3.7l1.7-6.8h-2.8l0.3-1.2h2.8L348.9,123.4z"/>
		<path class="st4" d="M364.2,136l0.6,0.7c-2.8,2.6-5.2,4-7.2,4c-0.8,0-1.4-0.3-1.8-0.8s-0.6-1.4-0.6-2.6c0-2.4,0.7-4.8,2.2-7.3
			c1.7-2.7,3.6-4.1,5.9-4.1c0.8,0,1.4,0.2,1.8,0.6s0.6,1,0.6,1.7s-0.3,1.5-0.8,2.2s-1.4,1.5-2.7,2.2c-0.7,0.4-2.1,1-4.2,2
			c-0.1,0.6-0.2,1.2-0.2,1.8c0,0.8,0.1,1.4,0.4,1.7s0.6,0.5,1.1,0.5s1-0.1,1.5-0.4C361.7,137.8,362.8,137.1,364.2,136z M358.3,133.6
			c1.8-0.8,3.2-1.7,4.1-2.6c0.6-0.7,0.9-1.3,0.9-2c0-0.5-0.1-0.9-0.4-1.2s-0.6-0.4-1-0.4s-0.8,0.2-1.2,0.5c-0.5,0.4-1,1.1-1.3,1.9
			C358.8,131,358.5,132.3,358.3,133.6z"/>
	</g>
</g>
</svg>
