<?xml version="1.0" encoding="utf-8"?>
<!-- Generator: Adobe Illustrator 23.0.1, SVG Export Plug-In . SVG Version: 6.00 Build 0)  -->
<svg version="1.1" id="Layer_1" xmlns="http://www.w3.org/2000/svg" xmlns:xlink="http://www.w3.org/1999/xlink" x="0px" y="0px"
	 viewBox="0 0 20 20" style="enable-background:new 0 0 20 20;" xml:space="preserve">
<style type="text/css">
	.st0{display:none;fill:#1D1D1B;}
	.st1{fill:#FF0606;}
</style>
<path id="fb" class="st0" d="M0,0v20h10.6v-7.7H8V9.1h2.6V6.5c0-1.9,1.6-3.5,3.5-3.5h2.7v2.8h-1.9c-0.6,0-1.1,0.5-1.1,1.1v2.2h3
	l-0.4,3.2h-2.6V20H20V0H0z"/>
<path class="st1" d="M8,12.6V7l5.3,2.8L8,12.6z M19.7,6c0,0-0.2-1.4-0.8-2c-0.7-0.8-1.6-0.8-2-0.8C14.1,3,10,3,10,3l0,0
	c0,0-4.1,0-6.9,0.2c-0.4,0-1.2,0-2,0.8C0.5,4.6,0.3,6,0.3,6S0.1,7.6,0.1,9.2v1.5c0,1.6,0.2,3.2,0.2,3.2s0.2,1.4,0.8,2
	c0.7,0.8,1.7,0.8,2.2,0.9C4.9,17,10,17,10,17s4.1,0,6.9-0.2c0.4,0,1.2-0.1,2-0.8c0.6-0.6,0.8-2,0.8-2s0.2-1.6,0.2-3.2V9.2
	C19.9,7.6,19.7,6,19.7,6z"/>
</svg>
